<svg width="48" height="48" viewBox="0 0 48 48" fill="none" xmlns="http://www.w3.org/2000/svg">
<rect width="48" height="48" rx="6" fill="#F3ECE5"/>
<g filter="url(#filter0_d_884_27)">
<path d="M24 6.93335C21.1191 6.93321 18.3546 8.0526 16.3073 10.0482C14.2601 12.0438 13.0955 14.7544 13.0667 17.5908C13.0667 24.9649 22.7017 41.2471 23.1117 41.597C23.3592 41.8055 23.6742 41.92 24 41.92C24.3257 41.92 24.6408 41.8055 24.8883 41.597C25.3666 41.2471 34.9333 24.9649 34.9333 17.5908C34.9045 14.7544 33.7399 12.0438 31.6926 10.0482C29.6453 8.0526 26.8808 6.93321 24 6.93335ZM24 21.7354C23.0539 21.7354 22.1291 21.4591 21.3425 20.9416C20.5559 20.4241 19.9428 19.6886 19.5808 18.828C19.2187 17.9674 19.124 17.0204 19.3086 16.1068C19.4931 15.1932 19.9487 14.354 20.6177 13.6953C21.2866 13.0367 22.1389 12.5881 23.0668 12.4064C23.9947 12.2247 24.9564 12.3179 25.8305 12.6744C26.7045 13.0309 27.4516 13.6345 27.9772 14.409C28.5028 15.1836 28.7833 16.0941 28.7833 17.0256C28.7833 18.2747 28.2794 19.4727 27.3823 20.3559C26.4853 21.2392 25.2686 21.7354 24 21.7354Z" fill="#AC2200"/>
<mask id="mask0_884_27" style="mask-type:alpha" maskUnits="userSpaceOnUse" x="13" y="6" width="22" height="36">
<path d="M24 6.93335C21.1191 6.93321 18.3546 8.0526 16.3073 10.0482C14.2601 12.0438 13.0955 14.7544 13.0667 17.5908C13.0667 24.9649 22.7017 41.2471 23.1117 41.597C23.3592 41.8055 23.6742 41.92 24 41.92C24.3257 41.92 24.6408 41.8055 24.8883 41.597C25.3667 41.2471 34.9333 24.9649 34.9333 17.5908C34.9045 14.7544 33.7399 12.0438 31.6926 10.0482C29.6453 8.0526 26.8808 6.93321 24 6.93335ZM24 21.7354C23.0539 21.7354 22.1291 21.4591 21.3425 20.9416C20.5559 20.4241 19.9428 19.6886 19.5808 18.828C19.2187 17.9674 19.124 17.0204 19.3086 16.1068C19.4931 15.1932 19.9487 14.354 20.6177 13.6953C21.2866 13.0367 22.1389 12.5881 23.0668 12.4064C23.9947 12.2247 24.9564 12.3179 25.8305 12.6744C26.7045 13.0309 27.4516 13.6345 27.9772 14.409C28.5028 15.1836 28.7833 16.0941 28.7833 17.0256C28.7833 18.2747 28.2794 19.4727 27.3823 20.3559C26.4853 21.2392 25.2686 21.7354 24 21.7354Z" fill="#571600"/>
</mask>
<g mask="url(#mask0_884_27)">
<path fill-rule="evenodd" clip-rule="evenodd" d="M26.9781 39.6317L26.705 39.3131H26.523L26.432 39.2221L25.8859 39.3587L25.5218 39.0401L25.3398 39.1311L25.3171 39.0174L25.4081 38.9263L25.3398 38.6761L25.1578 38.8126L24.7255 38.8353L24.6345 38.6533L24.8165 38.5168L24.6345 38.4258L24.589 38.1982L24.68 38.0162L24.8165 37.9252V37.4701L24.9075 37.1971L24.8393 36.9468L24.2477 37.0378L23.9291 36.9468L23.7699 37.1516L23.8154 37.2881L23.7471 37.3564L23.6106 37.2654L23.4513 37.3791L23.4058 37.4701L23.5878 37.6522V37.9707L23.292 37.9935L23.1783 38.1072V38.7443L22.8825 39.0401H22.7915L22.655 38.8581H22.4274L22.1316 38.5623L22.1771 38.4258L22.3137 38.3348L22.2909 38.0845L22.1089 38.221H21.7448V37.9025L21.4263 37.8569L20.8802 37.5384L20.7209 37.7887L20.6299 38.1527L20.6754 38.3348L20.4707 38.585L20.4251 38.5395L20.1976 38.7216H19.9701L19.4923 38.1072V37.8797L19.3102 37.6067V37.2426L19.4695 37.0378L20.1294 36.6055L20.0383 36.105L19.8108 35.5589V35.3769L19.9473 35.1948L19.8563 34.4212L19.9928 34.1027L19.9473 33.6931L19.8108 33.5111V32.783L19.9018 32.51L19.9473 31.7819L20.2659 31.2358L20.3114 30.9172L20.4934 30.4622L20.3114 29.8251L20.1294 29.5065L20.0838 28.9605L19.9473 28.5509L19.7198 28.0959L19.3557 27.6408L19.1737 27.1857L18.7642 26.6852L18.5366 25.9571L18.1953 25.5703L17.5583 25.2062L17.3535 25.0014L16.7164 23.7273L16.6254 22.9992L16.4661 22.8399L16.1248 22.6806L16.0793 22.4531L16.1703 22.2255V21.816L15.4877 20.9514L15.6242 20.1323L15.4422 19.2221V18.8126L15.6697 18.4485L15.6242 18.221L15.5332 17.9935L14.8506 17.4019L14.7596 17.1288L14.077 16.4007L13.895 15.9002L13.5765 15.4906V15.1721L13.4399 14.899V14.626L13.2124 14.1254V13.5794L13.8267 13.056L14.6686 13.8979L14.9416 14.6715L15.0327 15.3996L15.3512 16.0367L15.9883 16.6738L16.6709 17.5839L17.1942 18.1072L17.7403 18.3348L18.1726 18.7216L18.9917 19.8137L19.1737 19.9502L19.3102 20.3143L19.4013 20.9059L19.7198 21.5885L20.3796 22.2483L20.7437 22.3848L21.2898 22.7489L21.6993 22.7034L21.9269 22.7944H22.3819L22.6777 22.9992L22.8142 23.4087L22.5412 23.8638L22.4047 24.1823V24.3643L22.7005 24.8422L23.5196 25.2517L24.2932 25.9343L25.1578 26.4349L25.7494 27.0265L26.0224 27.163H27.3876L27.5696 27.254L28.2067 27.8456L28.4798 27.9821L28.8893 28.3461L29.1624 28.4827L29.5719 28.5282L29.8905 28.6647L30.4593 29.3245V29.461L30.6641 29.5748L30.9371 29.4838L31.3467 29.0742H31.8017L32.1658 29.1197L32.8484 29.6203L33.531 29.8478L33.8267 30.1436L34.1453 30.7352L34.6459 31.3268L34.8734 31.7819L34.8051 31.9411L34.3956 32.0321L34.2591 32.2142L34.1225 32.2597L33.895 32.1687L33.5765 31.8956L33.4854 32.0321L33.3489 32.0777L33.1669 31.7591H32.9394L32.8711 31.9639L32.9621 32.0094V32.1914L32.8256 32.692L32.3478 32.6692L32.234 32.783L32.2795 33.056L32.052 33.1926L32.0748 33.3063L31.8927 33.3973L31.6424 33.1926V33.0105L31.5742 32.9423H30.7551L30.3 32.6692L30.0725 32.6237H29.6629L29.6174 32.7147L29.3444 32.8058L28.9576 33.2381L28.639 33.8296L28.4115 34.0117L28.275 34.4212V34.8763L28.184 35.2403L28.0019 35.4224L27.8654 35.7864L27.6834 35.9229L27.5924 36.105L27.5696 36.3097L27.7062 36.4463H28.0247L28.0474 36.56L27.5696 37.0378L27.4104 37.1061L27.3193 37.4246L27.7062 37.5384L27.7972 37.6749L28.0702 37.5839L28.093 37.7432L27.8882 37.8569L27.7062 38.0845L27.6151 37.948L27.2738 38.0162L27.5469 38.1982V38.3348L26.9098 38.9263L26.9553 39.3814H27.2283V39.4724L26.9781 39.6317ZM29.6857 31.6908L30.0952 31.4178L29.936 31.1675H29.3899L29.0713 30.849L28.7983 30.7125H28.6618L28.5253 30.8945L28.2067 30.94L27.9337 30.7125H27.7517L27.5241 30.5759L27.3421 30.6215L27.1601 30.4849H26.887L26.0907 30.2346L26.432 30.4394L26.796 30.8035L26.9781 30.7125L27.1146 30.8035H27.8882L28.1612 31.1675L28.3432 31.122L28.5253 30.94L28.7983 30.8945L29.6174 31.7136L29.6857 31.6908ZM26.0907 39.1539L26.1817 39.1084L26.1362 38.8353L26.2272 38.6988L25.9314 38.3575L25.8176 38.6078L25.6356 38.6533V38.8808L25.9314 39.1766L26.0907 39.1539Z" fill="url(#paint0_linear_884_27)" style="mix-blend-mode:plus-lighter"/>
</g>
<path d="M25.1461 17.9973C25.1461 17.9973 25.1555 17.9835 25.1741 17.9593C25.1844 17.9467 25.1925 17.9327 25.2026 17.9166C25.2075 17.9081 25.213 17.9008 25.2187 17.8906L25.2368 17.86C25.2656 17.8102 25.2908 17.7583 25.3122 17.7049C25.3354 17.6448 25.3558 17.5774 25.3676 17.505C25.38 17.4297 25.3834 17.3532 25.3778 17.2771C25.3773 17.2673 25.3755 17.2574 25.3745 17.2475L25.373 17.2327L25.3724 17.2253C25.3722 17.217 25.3725 17.2355 25.3724 17.2331L25.3722 17.2318L25.3719 17.2293L25.3712 17.2242L25.3659 17.1832L25.3646 17.1728C25.3644 17.1713 25.3643 17.169 25.364 17.168L25.3631 17.1651L25.3598 17.1532L25.3537 17.129L25.3456 17.0997C25.3434 17.0899 25.3397 17.0804 25.3365 17.0707C25.3332 17.0611 25.3308 17.0513 25.3269 17.0418C25.3126 17.0035 25.2954 16.9662 25.2763 16.9295C25.2558 16.8935 25.2338 16.858 25.2085 16.8242C25.1826 16.791 25.155 16.7586 25.1242 16.7289C25.0929 16.6996 25.0595 16.6726 25.0244 16.648C25.0084 16.6375 25.0193 16.6446 25.0154 16.6421L25.0142 16.6412L25.0119 16.6395L25.0071 16.6362L24.9977 16.6294L24.9788 16.6159L24.9694 16.6092L24.967 16.6075L24.9637 16.6049L24.957 16.5998L24.9304 16.5789L24.9042 16.5577L24.8977 16.5524L24.8921 16.5473L24.881 16.5371C24.8662 16.5235 24.8514 16.51 24.837 16.4961L24.7955 16.4527C24.7815 16.4385 24.7694 16.4225 24.7564 16.4075L24.7374 16.3845C24.7312 16.3769 24.7255 16.3687 24.7195 16.3608C24.7078 16.3448 24.696 16.329 24.685 16.3127C24.6411 16.2472 24.6044 16.178 24.5741 16.1075C24.5601 16.0717 24.546 16.0364 24.5356 16C24.5303 15.9819 24.524 15.9643 24.52 15.9459L24.5074 15.8916C24.4933 15.819 24.4843 15.747 24.4842 15.6768C24.4828 15.6417 24.4855 15.6071 24.487 15.5732L24.4874 15.5669L24.4876 15.5637L24.4877 15.5621C24.4877 15.5633 24.488 15.5464 24.488 15.553L24.4894 15.5428L24.4923 15.5226L24.4952 15.5025C24.4962 15.4955 24.4969 15.4903 24.4986 15.4803C24.5015 15.4625 24.5048 15.4448 24.5081 15.4274C24.5098 15.4188 24.5113 15.4099 24.5132 15.4017L24.5193 15.3784C24.5233 15.3629 24.5274 15.3477 24.5317 15.3327C24.5362 15.3177 24.5416 15.3031 24.5465 15.2886C24.5518 15.2742 24.556 15.2597 24.5621 15.2459L24.5797 15.2049L24.5884 15.1849L24.5982 15.1655L24.6177 15.1278C24.6657 15.0394 24.7265 14.9587 24.7982 14.8882C24.8611 14.8264 24.9232 14.7825 24.9754 14.7505C25.0019 14.7347 25.0255 14.7215 25.0471 14.7116C25.0683 14.7013 25.0864 14.693 25.1017 14.6874C25.132 14.6759 25.148 14.6705 25.148 14.6705C25.1629 14.6654 25.179 14.6653 25.1939 14.6702C25.2088 14.6751 25.2217 14.6846 25.2308 14.6975C25.2398 14.7103 25.2445 14.7257 25.244 14.7414C25.2436 14.7571 25.2381 14.7722 25.2284 14.7845L25.2239 14.7901C25.2239 14.7901 25.2143 14.8021 25.1965 14.8231C25.1872 14.8331 25.1774 14.8473 25.1653 14.8626C25.1528 14.8775 25.1407 14.8968 25.1263 14.9167C25.0991 14.9581 25.0686 15.0085 25.0415 15.0679C25.0148 15.1276 24.9911 15.1959 24.9767 15.2703C24.97 15.3077 24.9637 15.346 24.9619 15.3857C24.9613 15.3956 24.9603 15.4055 24.9601 15.4155C24.9602 15.4256 24.9602 15.4357 24.9601 15.4457L24.9599 15.4609C24.9601 15.4655 24.9606 15.4697 24.961 15.4741C24.9617 15.4828 24.9624 15.4914 24.9627 15.5C24.9627 15.5033 24.9635 15.5114 24.9639 15.5178L24.9655 15.538L24.9671 15.5584L24.9679 15.5686C24.9678 15.576 24.9681 15.56 24.9681 15.5619L24.9683 15.5629L24.9687 15.5648L24.9694 15.5687C24.9732 15.5893 24.9755 15.6102 24.9812 15.6306C24.9893 15.6718 25.0037 15.712 25.0183 15.7518C25.0344 15.7914 25.0534 15.8298 25.075 15.8667L25.0924 15.8938C25.0978 15.9031 25.1044 15.9117 25.1108 15.9204L25.1201 15.9336C25.1231 15.938 25.1263 15.9424 25.1299 15.9465L25.1503 15.9716C25.1786 16.0044 25.2093 16.035 25.2421 16.0633L25.2675 16.0835L25.2738 16.0886L25.2769 16.0911L25.2796 16.0928C25.2831 16.0952 25.2867 16.0975 25.2901 16.1L25.3002 16.1075L25.3027 16.1094L25.304 16.1104L25.3064 16.112L25.3162 16.1183L25.3357 16.1308L25.3455 16.1371L25.3503 16.1402L25.3528 16.1418L25.354 16.1426C25.3509 16.1406 25.3626 16.1482 25.3474 16.1383C25.4161 16.1809 25.4807 16.2298 25.5404 16.2842C25.5991 16.3391 25.6524 16.3993 25.6999 16.464C25.7112 16.4804 25.7226 16.4968 25.7335 16.5134C25.7391 16.5215 25.7443 16.5299 25.7492 16.5386L25.7643 16.5642C25.785 16.5978 25.8013 16.6338 25.8183 16.6688C25.8334 16.7049 25.8489 16.7404 25.8601 16.7773C25.8659 16.7957 25.8727 16.8136 25.8772 16.8321L25.8911 16.8873C25.8955 16.9057 25.8984 16.9243 25.9019 16.9426C25.9052 16.961 25.9084 16.9793 25.9101 16.9977L25.9159 17.0524C25.9164 17.0567 25.9167 17.0617 25.9168 17.0668L25.9175 17.0819L25.9186 17.1119L25.9193 17.1417L25.9195 17.1491C25.9195 17.1516 25.9193 17.1528 25.9193 17.1547L25.9187 17.1651L25.916 17.2064L25.9157 17.2115L25.9155 17.214L25.9154 17.2153C25.9154 17.2138 25.9156 17.2331 25.9154 17.2257L25.9141 17.2387L25.9113 17.2644C25.9091 17.2814 25.9076 17.2983 25.9046 17.315C25.8826 17.4487 25.8378 17.5692 25.7816 17.6694C25.7314 17.7595 25.6674 17.8412 25.5918 17.9115C25.5755 17.9259 25.559 17.9401 25.5423 17.954C25.5262 17.9673 25.5096 17.9788 25.4941 17.9902C25.479 18.0018 25.4628 18.011 25.448 18.0202C25.433 18.0293 25.4193 18.0383 25.4051 18.0454C25.3768 18.0595 25.3528 18.0723 25.3286 18.0817C25.3053 18.0913 25.2856 18.0997 25.2713 18.1027C25.2419 18.111 25.2256 18.1146 25.2256 18.1146C25.2059 18.1189 25.1852 18.1152 25.1681 18.1043C25.1511 18.0934 25.1391 18.0762 25.1347 18.0564C25.1326 18.0463 25.1325 18.0359 25.1344 18.0257C25.1364 18.0156 25.1404 18.0059 25.1461 17.9973ZM23.8325 18.0565C23.8346 18.0663 23.8387 18.0755 23.8444 18.0837C23.8501 18.092 23.8574 18.099 23.8659 18.1044C23.8743 18.1098 23.8837 18.1135 23.8936 18.1152C23.9035 18.117 23.9136 18.1168 23.9234 18.1146C23.9234 18.1146 23.9396 18.1111 23.9691 18.1028C23.9834 18.0998 24.0031 18.0913 24.0264 18.0818C24.0505 18.0723 24.0745 18.0596 24.1029 18.0454C24.117 18.0383 24.1307 18.0293 24.1457 18.0203C24.1606 18.0111 24.1767 18.0018 24.1919 17.9902C24.2073 17.9789 24.224 17.9674 24.2401 17.9541C24.2568 17.9402 24.2733 17.926 24.2895 17.9115C24.3651 17.8413 24.4291 17.7596 24.4793 17.6695C24.5356 17.5693 24.5804 17.4487 24.6023 17.315C24.6053 17.2984 24.6068 17.2815 24.6091 17.2644L24.6118 17.2387L24.6132 17.2258C24.6134 17.2332 24.6131 17.2138 24.6132 17.2154L24.6133 17.2141L24.6134 17.2116L24.6138 17.2064L24.6165 17.1651L24.617 17.1547C24.6171 17.1528 24.6173 17.1516 24.6172 17.1492L24.6171 17.1418L24.6163 17.112L24.6152 17.082L24.6146 17.0669C24.6145 17.0621 24.6141 17.0573 24.6136 17.0525L24.6078 16.9978C24.6062 16.9794 24.6029 16.9611 24.5996 16.9427C24.5961 16.9244 24.5933 16.9057 24.5888 16.8874L24.575 16.8322C24.5705 16.8136 24.5637 16.7957 24.5579 16.7774C24.5466 16.7405 24.5312 16.7049 24.516 16.6689C24.499 16.6338 24.4827 16.5979 24.462 16.5642L24.447 16.5386C24.4421 16.53 24.4368 16.5216 24.4312 16.5134C24.4203 16.4968 24.409 16.4805 24.3976 16.4641C24.3502 16.3993 24.2968 16.3391 24.2382 16.2843C24.2233 16.2707 24.2079 16.2577 24.1925 16.2446C24.1774 16.2312 24.1612 16.2192 24.1451 16.207C24.1288 16.1949 24.113 16.1823 24.096 16.1715L24.0707 16.1548L24.0579 16.1465L24.0516 16.1424L24.0484 16.1404L24.0468 16.1394C24.0497 16.1413 24.0379 16.1336 24.053 16.1434L24.0139 16.1183L24.0042 16.1121L24.0017 16.1105L24.0004 16.1095L23.998 16.1076L23.9878 16.1C23.9844 16.0976 23.9809 16.0952 23.9773 16.0929L23.9747 16.0912L23.9715 16.0886L23.9652 16.0836L23.9398 16.0634C23.9071 16.0351 23.8764 16.0044 23.848 15.9717L23.8277 15.9465C23.8241 15.9425 23.8209 15.9382 23.8179 15.9336L23.8085 15.9205C23.8021 15.9118 23.7955 15.9032 23.7901 15.8939L23.7727 15.8667C23.7512 15.8298 23.7322 15.7914 23.716 15.7519C23.7014 15.7121 23.687 15.6719 23.6789 15.6306C23.6732 15.6102 23.671 15.5894 23.6671 15.5688L23.6664 15.5649L23.6661 15.563L23.6659 15.562C23.6658 15.56 23.6656 15.5761 23.6656 15.5687L23.6648 15.5584L23.6633 15.5381L23.6617 15.5179C23.6612 15.5115 23.6605 15.5033 23.6605 15.5001C23.6601 15.4915 23.6594 15.4829 23.6587 15.4742C23.6584 15.4698 23.6578 15.4656 23.6576 15.4609L23.6578 15.4458C23.658 15.4358 23.658 15.4257 23.6579 15.4156C23.658 15.4056 23.6591 15.3957 23.6596 15.3858C23.6615 15.346 23.6677 15.3078 23.6744 15.2704C23.6889 15.196 23.7126 15.1277 23.7392 15.068C23.7663 15.0085 23.7968 14.9581 23.8241 14.9168C23.8384 14.8969 23.8505 14.8775 23.863 14.8627C23.8752 14.8474 23.885 14.8331 23.8942 14.8232C23.9035 14.8123 23.9126 14.8013 23.9216 14.7902L23.9261 14.7846C23.9359 14.7723 23.9413 14.7571 23.9418 14.7415C23.9422 14.7258 23.9375 14.7104 23.9285 14.6975C23.9195 14.6847 23.9065 14.6752 23.8916 14.6703C23.8767 14.6654 23.8606 14.6655 23.8457 14.6705C23.8457 14.6705 23.8297 14.676 23.7994 14.6875C23.7842 14.6931 23.7661 14.7014 23.7449 14.7117C23.7233 14.7216 23.6996 14.7348 23.6731 14.7505C23.6209 14.7826 23.5588 14.8265 23.4959 14.8883C23.4243 14.9588 23.3635 15.0395 23.3155 15.1278L23.2959 15.1656L23.2861 15.185L23.2774 15.205L23.2599 15.246C23.2537 15.2598 23.2495 15.2743 23.2442 15.2887C23.2393 15.3032 23.2339 15.3178 23.2294 15.3328C23.2251 15.348 23.221 15.3632 23.217 15.3785L23.2109 15.4017C23.2091 15.41 23.2075 15.4189 23.2058 15.4275C23.2025 15.4449 23.1992 15.4626 23.1963 15.4804C23.1946 15.4904 23.194 15.4956 23.193 15.5026L23.1901 15.5227L23.1872 15.5429L23.1857 15.553C23.1858 15.5465 23.1854 15.5633 23.1854 15.5622L23.1853 15.5638L23.1851 15.567L23.1848 15.5733C23.1832 15.6072 23.1805 15.6418 23.1819 15.6769C23.1821 15.7471 23.1911 15.8191 23.2052 15.8917L23.2177 15.946C23.2217 15.9643 23.2281 15.982 23.2333 16.0001C23.2437 16.0365 23.2578 16.0718 23.2719 16.1076C23.3022 16.1781 23.3388 16.2473 23.3828 16.3127C23.3937 16.3291 23.4056 16.3449 23.4173 16.3609C23.4232 16.3688 23.4289 16.3769 23.4352 16.3846L23.4542 16.4075C23.4671 16.4226 23.4793 16.4385 23.4932 16.4528L23.5347 16.4961C23.5491 16.5101 23.564 16.5235 23.5788 16.5372L23.5899 16.5474L23.5955 16.5524L23.602 16.5578L23.6282 16.579L23.6548 16.5999L23.6614 16.605L23.6648 16.6076L23.6671 16.6092L23.6766 16.616L23.7143 16.643C23.7302 16.6534 23.7192 16.6462 23.723 16.6487L23.7238 16.6493L23.7254 16.6505L23.7286 16.6529L23.7351 16.6577L23.7482 16.6671C23.7573 16.6728 23.7652 16.6802 23.7736 16.6868C23.7909 16.6996 23.8057 16.7151 23.822 16.729C23.8527 16.7587 23.8803 16.791 23.9063 16.8242C23.9315 16.858 23.9535 16.8935 23.9741 16.9295C23.9931 16.9663 24.0104 17.0036 24.0247 17.0419C24.0285 17.0513 24.0309 17.0612 24.0342 17.0708C24.0375 17.0804 24.0412 17.09 24.0434 17.0998L24.0514 17.1291L24.0576 17.1533L24.0609 17.1651L24.0617 17.1681C24.062 17.169 24.0622 17.1713 24.0624 17.1729L24.0636 17.1832L24.069 17.2243L24.0696 17.2293L24.07 17.2319L24.0701 17.2332C24.0702 17.2356 24.0699 17.2171 24.0701 17.2253L24.0708 17.2327L24.0723 17.2476C24.0732 17.2575 24.0751 17.2674 24.0755 17.2772C24.0811 17.3533 24.0777 17.4298 24.0654 17.505C24.0535 17.5775 24.0332 17.6449 24.0099 17.7049C23.9886 17.7584 23.9634 17.8102 23.9345 17.86L23.9165 17.8907C23.9107 17.9009 23.9053 17.9082 23.9003 17.9166C23.8903 17.9327 23.8821 17.9468 23.8718 17.9593C23.8532 17.9836 23.8439 17.9974 23.8439 17.9974C23.8381 18.006 23.8341 18.0156 23.8321 18.0258C23.8302 18.0359 23.8303 18.0464 23.8325 18.0565ZM22.5302 18.0565C22.5323 18.0663 22.5364 18.0755 22.5421 18.0837C22.5478 18.092 22.5551 18.099 22.5636 18.1044C22.572 18.1098 22.5814 18.1135 22.5913 18.1152C22.6012 18.117 22.6113 18.1168 22.6211 18.1146C22.6211 18.1146 22.6373 18.1111 22.6668 18.1028C22.6811 18.0998 22.7008 18.0913 22.7241 18.0818C22.7482 18.0723 22.7722 18.0596 22.8005 18.0454C22.8147 18.0383 22.8284 18.0293 22.8434 18.0203C22.8582 18.0111 22.8744 18.0018 22.8896 17.9902C22.905 17.9789 22.9217 17.9674 22.9378 17.9541C22.9545 17.9402 22.9709 17.926 22.9872 17.9115C23.0628 17.8413 23.1268 17.7596 23.177 17.6695C23.2333 17.5693 23.2781 17.4487 23.3 17.315C23.303 17.2984 23.3045 17.2815 23.3067 17.2644L23.3095 17.2387L23.3109 17.2258C23.3111 17.2332 23.3108 17.2138 23.3109 17.2154L23.311 17.2141L23.3111 17.2116L23.3115 17.2064L23.3141 17.1651L23.3147 17.1547C23.3148 17.1528 23.315 17.1516 23.3149 17.1492L23.3148 17.1418L23.314 17.112L23.3129 17.082L23.3123 17.0669C23.3122 17.0621 23.3118 17.0573 23.3113 17.0525L23.3055 16.9978C23.3038 16.9794 23.3006 16.9611 23.2973 16.9427C23.2938 16.9244 23.291 16.9057 23.2865 16.8874L23.2726 16.8322C23.2682 16.8136 23.2613 16.7957 23.2556 16.7774C23.2443 16.7405 23.2289 16.7049 23.2137 16.6689C23.1967 16.6338 23.1804 16.5979 23.1597 16.5642L23.1447 16.5386C23.1398 16.53 23.1345 16.5216 23.1289 16.5134C23.118 16.4968 23.1067 16.4805 23.0953 16.4641C23.0479 16.3993 22.9945 16.3391 22.9359 16.2843C22.921 16.2707 22.9056 16.2577 22.8902 16.2446C22.8751 16.2312 22.8589 16.2192 22.8428 16.207C22.8265 16.1949 22.8107 16.1823 22.7937 16.1715L22.7684 16.1548L22.7556 16.1465L22.7493 16.1424L22.7461 16.1404L22.7445 16.1394C22.7474 16.1413 22.7356 16.1336 22.7507 16.1434L22.7116 16.1183L22.7019 16.1121L22.6994 16.1105L22.6981 16.1095L22.6956 16.1076L22.6855 16.1C22.6821 16.0976 22.6786 16.0952 22.675 16.0929L22.6723 16.0912L22.6692 16.0886L22.6629 16.0836L22.6375 16.0634C22.6048 16.0351 22.5741 16.0044 22.5457 15.9717L22.5254 15.9465C22.5218 15.9425 22.5185 15.9382 22.5156 15.9336L22.5062 15.9205C22.4998 15.9118 22.4932 15.9032 22.4878 15.8939L22.4704 15.8667C22.4488 15.8298 22.4299 15.7914 22.4137 15.7519C22.3991 15.7121 22.3847 15.6719 22.3766 15.6306C22.3709 15.6102 22.3686 15.5894 22.3648 15.5688L22.3641 15.5649L22.3637 15.563L22.3636 15.562C22.3635 15.56 22.3632 15.5761 22.3633 15.5687L22.3625 15.5584L22.3609 15.5381L22.3594 15.5179C22.3589 15.5115 22.3582 15.5033 22.3582 15.5001C22.3578 15.4915 22.3571 15.4829 22.3564 15.4742C22.3561 15.4698 22.3555 15.4656 22.3553 15.4609L22.3555 15.4458C22.3557 15.4358 22.3557 15.4257 22.3555 15.4156C22.3557 15.4056 22.3568 15.3957 22.3573 15.3858C22.3592 15.346 22.3654 15.3078 22.3721 15.2704C22.3866 15.196 22.4102 15.1277 22.4369 15.068C22.464 15.0085 22.4945 14.9581 22.5218 14.9168C22.5361 14.8969 22.5482 14.8775 22.5607 14.8627C22.5728 14.8474 22.5827 14.8331 22.5919 14.8232C22.6012 14.8123 22.6103 14.8013 22.6193 14.7902L22.6238 14.7846C22.6335 14.7723 22.639 14.7571 22.6395 14.7415C22.6399 14.7258 22.6352 14.7104 22.6262 14.6975C22.6172 14.6847 22.6042 14.6752 22.5893 14.6703C22.5744 14.6654 22.5583 14.6655 22.5434 14.6705C22.5434 14.6705 22.5274 14.676 22.4971 14.6875C22.4818 14.6931 22.4638 14.7014 22.4426 14.7117C22.421 14.7216 22.3973 14.7348 22.3708 14.7505C22.3186 14.7826 22.2565 14.8265 22.1936 14.8883C22.122 14.9588 22.0611 15.0395 22.0132 15.1278L21.9936 15.1656L21.9838 15.185L21.9751 15.205L21.9575 15.246C21.9514 15.2598 21.9472 15.2743 21.9419 15.2887C21.937 15.3032 21.9316 15.3178 21.9271 15.3328C21.9228 15.348 21.9187 15.3632 21.9147 15.3785L21.9086 15.4017C21.9068 15.41 21.9052 15.4189 21.9035 15.4275C21.9002 15.4449 21.8969 15.4626 21.894 15.4804C21.8923 15.4904 21.8917 15.4956 21.8907 15.5026L21.8878 15.5227L21.8849 15.5429L21.8834 15.553C21.8835 15.5465 21.8831 15.5633 21.8831 15.5622L21.883 15.5638L21.8828 15.567L21.8825 15.5733C21.8809 15.6072 21.8782 15.6418 21.8796 15.6769C21.8798 15.7471 21.8888 15.8191 21.9029 15.8917L21.9154 15.946C21.9194 15.9643 21.9257 15.982 21.931 16.0001C21.9414 16.0365 21.9555 16.0718 21.9696 16.1076C21.9999 16.1781 22.0365 16.2473 22.0804 16.3127C22.0914 16.3291 22.1033 16.3449 22.115 16.3609C22.1209 16.3688 22.1266 16.3769 22.1329 16.3846L22.1519 16.4075C22.1648 16.4226 22.1769 16.4385 22.1909 16.4528L22.2324 16.4961C22.2468 16.5101 22.2617 16.5235 22.2764 16.5372L22.2876 16.5474L22.2932 16.5524L22.2997 16.5578L22.3259 16.579L22.3524 16.5999L22.3591 16.605L22.3624 16.6076L22.3648 16.6092L22.3742 16.616L22.412 16.643C22.4279 16.6534 22.4169 16.6462 22.4206 16.6487L22.4215 16.6493L22.4231 16.6505L22.4263 16.6529L22.4328 16.6577L22.4459 16.6671C22.4549 16.6728 22.4629 16.6802 22.4713 16.6868C22.4886 16.6996 22.5034 16.7151 22.5197 16.729C22.5504 16.7587 22.578 16.791 22.604 16.8242C22.6292 16.858 22.6512 16.8935 22.6718 16.9295C22.6908 16.9663 22.708 17.0036 22.7223 17.0419C22.7262 17.0513 22.7286 17.0612 22.7319 17.0708C22.7352 17.0804 22.7389 17.09 22.7411 17.0998L22.7491 17.1291L22.7552 17.1533L22.7586 17.1651L22.7594 17.1681C22.7597 17.169 22.7599 17.1713 22.7601 17.1729L22.7613 17.1832L22.7667 17.2243L22.7673 17.2293L22.7677 17.2319L22.7678 17.2332C22.7679 17.2356 22.7676 17.2171 22.7678 17.2253L22.7685 17.2327L22.7699 17.2476C22.7709 17.2575 22.7728 17.2674 22.7732 17.2772C22.7788 17.3533 22.7754 17.4298 22.763 17.505C22.7512 17.5775 22.7309 17.6449 22.7076 17.7049C22.6863 17.7584 22.6611 17.8102 22.6322 17.86L22.6142 17.8907C22.6084 17.9009 22.603 17.9082 22.598 17.9166C22.588 17.9327 22.5798 17.9468 22.5695 17.9593C22.5509 17.9836 22.5416 17.9974 22.5416 17.9974C22.5358 18.006 22.5318 18.0156 22.5298 18.0258C22.5278 18.0359 22.528 18.0464 22.5302 18.0565ZM22.0552 17.1315C22.0488 17.1218 22.0406 17.1135 22.031 17.107C22.0214 17.1005 22.0106 17.0959 21.9992 17.0936C21.9878 17.0913 21.9761 17.0913 21.9647 17.0935C21.9534 17.0957 21.9425 17.1001 21.9328 17.1065L21.9119 17.1203L21.8864 17.1374C21.8765 17.1436 21.8643 17.1531 21.8505 17.1637C21.837 17.1743 21.8207 17.186 21.8048 17.1994C21.7888 17.2129 21.7711 17.2275 21.7526 17.2442C21.7158 17.2778 21.674 17.3177 21.6315 17.3678C21.6095 17.3922 21.5883 17.4199 21.5659 17.4492L21.5337 17.4959C21.5224 17.5118 21.5127 17.5292 21.5018 17.5465C21.4593 17.6165 21.4207 17.6985 21.3902 17.7919L21.379 17.8274C21.3754 17.8394 21.3724 17.8517 21.3694 17.8641L21.3603 17.9017L21.3532 17.9404C21.351 17.9534 21.3483 17.9665 21.3465 17.9799L21.3417 18.0203L21.3394 18.0408L21.3388 18.046L21.3385 18.0486C21.3388 18.0674 21.3385 18.055 21.3385 18.0598L21.338 18.0683L21.3358 18.1026L21.3336 18.1374C21.3335 18.1387 21.3335 18.1405 21.3336 18.1426L21.3337 18.1484L21.3341 18.1602L21.335 18.184C21.3365 18.2154 21.3377 18.2497 21.342 18.2779L21.3477 18.3227L21.3507 18.3453C21.3519 18.3528 21.3537 18.3602 21.3551 18.3677L21.3647 18.4128C21.3681 18.4279 21.3707 18.4435 21.3754 18.4582C21.4069 18.5792 21.4578 18.6995 21.5248 18.8125C21.5915 18.9259 21.6736 19.0327 21.7669 19.1308C21.9537 19.3273 22.1831 19.4901 22.4343 19.619C22.56 19.6831 22.6915 19.7387 22.8267 19.7868L22.8777 19.8043L22.9032 19.8131L22.929 19.8211L23.0325 19.8527L23.1373 19.8806C23.1724 19.8898 23.2078 19.8972 23.2432 19.9056C23.2785 19.9141 23.3142 19.921 23.3499 19.9277C23.3857 19.9345 23.4215 19.9416 23.4575 19.9468C23.4935 19.9523 23.5295 19.9586 23.5657 19.9634L23.6745 19.9764C23.7109 19.9804 23.7473 19.983 23.7837 19.9864C23.802 19.9878 23.8202 19.9898 23.8384 19.9908L23.8932 19.9936C23.9298 19.9952 23.9663 19.9978 24.0029 19.998L24.1185 20L24.2192 19.9982L24.2444 19.9977C24.2484 19.9977 24.2531 19.9974 24.2579 19.9972L24.2722 19.9965L24.3293 19.9938L24.3864 19.9909C24.4055 19.9901 24.4231 19.9881 24.4415 19.9866C24.478 19.9833 24.5144 19.9806 24.5507 19.9766L24.6595 19.9636C24.6958 19.959 24.7318 19.9526 24.7678 19.9472C24.8038 19.9419 24.8396 19.9349 24.8754 19.928C24.9111 19.9213 24.9468 19.9147 24.9822 19.9061C25.0175 19.8977 25.053 19.8903 25.088 19.8811L25.1929 19.8532L25.2964 19.8216L25.3222 19.8137L25.3477 19.8049L25.3987 19.7873C25.5339 19.7393 25.6655 19.6838 25.7913 19.6196C26.0425 19.4908 26.2721 19.328 26.4589 19.1314C26.5522 19.0332 26.6344 18.9264 26.7012 18.813C26.7681 18.6998 26.8191 18.5795 26.8506 18.4585C26.8823 18.3375 26.8947 18.2165 26.8901 18.1035L26.8881 18.0615L26.8876 18.0511C26.8875 18.0472 26.8876 18.0561 26.8873 18.0418L26.887 18.0397L26.8865 18.0355L26.8842 18.0187L26.8797 17.9855L26.8782 17.9759L26.8765 17.9651L26.873 17.9437L26.8655 17.9016L26.8565 17.864C26.8534 17.8516 26.8505 17.8392 26.8469 17.8272L26.8356 17.7917C26.805 17.6983 26.7665 17.6163 26.7239 17.5463C26.713 17.529 26.7033 17.5115 26.6919 17.4957L26.6596 17.449C26.6373 17.4197 26.6161 17.392 26.594 17.3676C26.5515 17.3176 26.5096 17.2776 26.4728 17.2441C26.4543 17.2274 26.4365 17.2128 26.4206 17.1993C26.4046 17.1858 26.389 17.1749 26.3757 17.1645C26.3491 17.1436 26.3271 17.1299 26.3129 17.1199L26.2911 17.1053C26.2616 17.0857 26.2217 17.085 26.1912 17.1068C26.1818 17.1135 26.1738 17.122 26.1677 17.1318C26.1616 17.1416 26.1575 17.1525 26.1556 17.1639C26.1537 17.1752 26.154 17.1869 26.1566 17.1981C26.1592 17.2094 26.164 17.22 26.1707 17.2294L26.1736 17.2334L26.1875 17.2529C26.1966 17.2657 26.2107 17.2841 26.2273 17.3091C26.2444 17.3337 26.2641 17.3648 26.2863 17.4011C26.2966 17.4197 26.3087 17.439 26.3195 17.4605L26.3367 17.4932C26.3427 17.5043 26.3477 17.5164 26.3534 17.5283C26.3653 17.552 26.3746 17.5782 26.386 17.6045L26.4007 17.6456C26.4061 17.6594 26.4095 17.6742 26.4141 17.6887C26.4306 17.7474 26.4444 17.8103 26.449 17.8769L26.4507 17.9019C26.4512 17.9103 26.4508 17.9188 26.4512 17.9273L26.4518 17.9527L26.4504 17.9751L26.4492 17.9987L26.4467 18.0321L26.4455 18.049L26.4452 18.0533L26.445 18.0554C26.4447 18.0425 26.4447 18.0527 26.4446 18.0503L26.4434 18.0569L26.4386 18.0832C26.4254 18.1563 26.4026 18.2273 26.3707 18.2944C26.3051 18.4343 26.1918 18.57 26.0422 18.6902C25.8926 18.8105 25.7079 18.9152 25.5027 18.9991C25.3974 19.0415 25.2898 19.0782 25.1805 19.1091C25.0674 19.1415 24.9525 19.1679 24.8366 19.1881C24.7179 19.2093 24.5984 19.2252 24.4784 19.2358C24.4481 19.2386 24.4177 19.2401 24.3873 19.2424C24.3723 19.2432 24.3566 19.2447 24.3422 19.2453L24.2987 19.2472L24.2552 19.2492L24.2443 19.2497C24.2408 19.2499 24.2371 19.25 24.2327 19.25L24.2075 19.2503L24.1068 19.2517L24.0208 19.2505C23.9902 19.2506 23.9597 19.2485 23.9292 19.2474C23.8987 19.2461 23.8682 19.2451 23.8379 19.2426C23.8075 19.2403 23.7771 19.2389 23.7468 19.2361C23.6268 19.2255 23.5072 19.2097 23.3885 19.1886C23.2709 19.168 23.1558 19.1416 23.0445 19.1096C22.9352 19.0789 22.8276 19.0422 22.7222 18.9998C22.5169 18.916 22.3322 18.8112 22.1825 18.6909C22.0328 18.5705 21.9194 18.4347 21.8538 18.2946C21.8488 18.2861 21.846 18.2771 21.8421 18.2683L21.831 18.242C21.8292 18.2376 21.8271 18.2333 21.8255 18.2288L21.8211 18.2156L21.8121 18.1891C21.805 18.1704 21.8025 18.157 21.7979 18.1417L21.7945 18.1305L21.7927 18.1249L21.7918 18.1221C21.7914 18.121 21.7911 18.1198 21.791 18.1186L21.786 18.0841L21.781 18.0501L21.7798 18.0416C21.7798 18.045 21.7794 18.0312 21.7797 18.0486L21.7795 18.047L21.7792 18.0437L21.7779 18.0306L21.7751 18.0044C21.7744 17.9957 21.7744 17.9871 21.774 17.9784L21.7729 17.9526L21.7735 17.9272C21.7738 17.9187 21.7734 17.9102 21.7739 17.9018L21.7757 17.8768C21.7804 17.8102 21.7942 17.7472 21.8107 17.6885C21.8153 17.674 21.8188 17.6592 21.8241 17.6454L21.8389 17.6042C21.8503 17.578 21.8596 17.5518 21.8715 17.5281C21.8773 17.5162 21.8823 17.5042 21.8883 17.493L21.9055 17.4603C21.9164 17.4388 21.9285 17.4196 21.9388 17.4009C21.9496 17.3826 21.9607 17.3662 21.9702 17.3506C21.9798 17.3348 21.989 17.3223 21.9971 17.3099C22.0052 17.2978 22.0121 17.2872 22.0198 17.2771L22.0381 17.2525L22.0529 17.2322C22.0739 17.2033 22.0761 17.1631 22.0552 17.1315Z" fill="#AC2200"/>
</g>
<defs>
<filter id="filter0_d_884_27" x="10.4" y="4.26668" width="27.2" height="40.32" filterUnits="userSpaceOnUse" color-interpolation-filters="sRGB">
<feFlood flood-opacity="0" result="BackgroundImageFix"/>
<feColorMatrix in="SourceAlpha" type="matrix" values="0 0 0 0 0 0 0 0 0 0 0 0 0 0 0 0 0 0 127 0" result="hardAlpha"/>
<feOffset/>
<feGaussianBlur stdDeviation="1.33333"/>
<feComposite in2="hardAlpha" operator="out"/>
<feColorMatrix type="matrix" values="0 0 0 0 0 0 0 0 0 0 0 0 0 0 0 0 0 0 0.2 0"/>
<feBlend mode="normal" in2="BackgroundImageFix" result="effect1_dropShadow_884_27"/>
<feBlend mode="normal" in="SourceGraphic" in2="effect1_dropShadow_884_27" result="shape"/>
</filter>
<linearGradient id="paint0_linear_884_27" x1="14.1333" y1="14.4" x2="26.6666" y2="38.4" gradientUnits="userSpaceOnUse">
<stop stop-color="white" stop-opacity="0.8"/>
<stop offset="1" stop-color="#AC2200"/>
</linearGradient>
</defs>
</svg>
