<svg width="48" height="46" viewBox="0 0 48 46" fill="none" xmlns="http://www.w3.org/2000/svg">
<g clip-path="url(#clip0_918_17)">
<path d="M32.8841 28.7274C32.8841 28.7274 32.9647 28.6084 33.125 28.3989C33.2137 28.2906 33.2841 28.1696 33.3707 28.0307C33.4133 27.9581 33.4603 27.8951 33.5101 27.8071L33.6658 27.5425C33.9147 27.113 34.1319 26.666 34.3159 26.2049C34.5168 25.6869 34.6921 25.1055 34.7941 24.4808C34.9008 23.8315 34.9303 23.1718 34.882 22.5156C34.878 22.4311 34.862 22.3452 34.8536 22.2601L34.8411 22.1322L34.8352 22.0682C34.8337 21.9969 34.8364 22.1566 34.8355 22.1358L34.834 22.1248L34.8312 22.1029L34.8254 22.059L34.7792 21.7051L34.7687 21.6159C34.7668 21.6025 34.7655 21.5828 34.7629 21.5746L34.7555 21.549L34.7269 21.447L34.6738 21.238L34.6048 20.9856C34.5858 20.9006 34.5538 20.8184 34.5258 20.7353C34.497 20.6525 34.4764 20.5674 34.4431 20.4858C34.3197 20.156 34.1711 19.8342 34.007 19.5171C33.8294 19.2065 33.6399 18.9002 33.4221 18.6088C33.1984 18.3225 32.9604 18.0432 32.6949 17.7871C32.4249 17.5344 32.1372 17.3012 31.8339 17.0895C31.6961 16.999 31.7899 17.0602 31.7565 17.0381L31.7463 17.0309L31.726 17.0163L31.6852 16.9872L31.6037 16.9291L31.4407 16.8126L31.3593 16.7544L31.3389 16.7399L31.3103 16.7179L31.2527 16.6734L31.0235 16.4937L30.7974 16.3108L30.7414 16.2645L30.6932 16.2207L30.5972 16.1329C30.4698 16.0152 30.3415 15.899 30.2176 15.7789L29.8596 15.4051C29.7391 15.2823 29.6344 15.1448 29.5229 15.0147L29.3591 14.8169C29.3049 14.7507 29.256 14.6802 29.2046 14.6121C29.1036 14.4743 29.0012 14.3383 28.9068 14.1971C28.5278 13.6323 28.2119 13.0358 27.9503 12.4278C27.8292 12.1191 27.7079 11.8141 27.618 11.5006C27.5725 11.3442 27.5177 11.192 27.4835 11.034L27.3754 10.5654C27.2537 9.93962 27.176 9.31854 27.1744 8.71258C27.1626 8.41013 27.1857 8.11198 27.1991 7.81957L27.2024 7.76484L27.2041 7.73748L27.2049 7.72379C27.2048 7.73355 27.208 7.58802 27.2074 7.64457L27.22 7.55702L27.2449 7.38278L27.2698 7.20969C27.2787 7.14941 27.2841 7.10453 27.2989 7.01832C27.324 6.86418 27.3525 6.71204 27.3808 6.56182C27.3954 6.48738 27.4089 6.41074 27.4248 6.33964L27.4774 6.1389C27.5121 6.00578 27.5478 5.87447 27.5844 5.74498C27.6232 5.6159 27.6698 5.48989 27.7121 5.36473C27.7575 5.24035 27.7937 5.11529 27.8468 4.99635L27.9982 4.64281L28.0734 4.46991L28.1577 4.30284L28.3266 3.97724C28.7404 3.21536 29.2649 2.51908 29.883 1.91116C30.4256 1.37792 30.9611 0.999298 31.4114 0.723062C31.6397 0.587479 31.8439 0.473234 32.0301 0.388076C32.2131 0.2989 32.3689 0.227712 32.5008 0.179583C32.7617 0.0797858 32.9001 0.0329969 32.9001 0.0329969C33.0283 -0.0103023 33.1671 -0.0110057 33.2957 0.0309916C33.4244 0.0729889 33.536 0.155438 33.6139 0.266046C33.6919 0.376655 33.732 0.509499 33.7284 0.644775C33.7247 0.780051 33.6774 0.910513 33.5935 1.01671L33.5545 1.06532C33.5545 1.06532 33.4719 1.16837 33.3185 1.3495C33.2385 1.43542 33.1538 1.55809 33.0492 1.69013C32.9414 1.81863 32.8369 1.98531 32.7132 2.15696C32.478 2.51357 32.2151 2.94826 31.9814 3.46141C31.7513 3.97628 31.5471 4.56502 31.4226 5.20705C31.3649 5.5294 31.3109 5.85932 31.2946 6.20224C31.2902 6.28779 31.2812 6.37256 31.2796 6.45906C31.2807 6.54613 31.2806 6.63307 31.2792 6.71989L31.2774 6.8503C31.2792 6.89059 31.2841 6.92637 31.2869 6.96436C31.2931 7.03937 31.2994 7.11391 31.3021 7.18816C31.3023 7.216 31.3085 7.28633 31.3126 7.34144L31.3262 7.51578L31.3398 7.69126L31.3467 7.77939C31.346 7.84321 31.3484 7.70504 31.3488 7.72207L31.3503 7.7304L31.3535 7.74714L31.3596 7.78053C31.3927 7.95841 31.412 8.13791 31.4611 8.31397C31.5313 8.66971 31.6552 9.01656 31.7813 9.3594C31.9207 9.7008 32.0841 10.032 32.2701 10.3504L32.4203 10.5848C32.467 10.6646 32.5238 10.739 32.5793 10.8137L32.6597 10.9274C32.6854 10.966 32.7132 11.0032 32.7441 11.0385L32.9198 11.2558C33.1644 11.5379 33.429 11.8021 33.7114 12.0464L33.9306 12.2204L33.9849 12.2642L34.0119 12.2861L34.035 12.3011C34.0656 12.3212 34.0961 12.3411 34.1254 12.3626L34.2129 12.4275L34.2344 12.4441L34.2454 12.4526L34.2664 12.4661L34.3506 12.5203L34.519 12.6286L34.6032 12.6828L34.6453 12.7098L34.6664 12.7233L34.6769 12.7301C34.6504 12.7127 34.7511 12.7786 34.6202 12.6928C35.2124 13.0607 35.7696 13.4822 36.2847 13.952C36.7905 14.4248 37.2509 14.944 37.66 15.5026C37.758 15.6439 37.8559 15.785 37.9498 15.928C37.9984 15.9985 38.0434 16.0712 38.0858 16.1454L38.2153 16.3663C38.3942 16.6564 38.5346 16.9666 38.6811 17.2691C38.8118 17.5798 38.9451 17.8867 39.0421 18.2047C39.0919 18.363 39.1509 18.5173 39.1895 18.6775L39.3089 19.1537C39.3477 19.3117 39.3719 19.4724 39.4025 19.6304C39.4305 19.789 39.4586 19.9466 39.473 20.1054L39.5229 20.5773C39.5275 20.6147 39.5298 20.6572 39.5314 20.7016L39.5369 20.8319L39.5461 21.0907L39.5527 21.3473L39.554 21.4111C39.5544 21.4327 39.5527 21.4429 39.5522 21.4594L39.5475 21.549L39.5243 21.9051L39.5214 21.9493L39.52 21.9715L39.5192 21.9825C39.5188 21.9691 39.5208 22.1361 39.5192 22.0721L39.5076 22.1838L39.4836 22.4055C39.4645 22.5525 39.4514 22.6982 39.4255 22.842C39.2362 23.995 38.8499 25.0346 38.3649 25.899C37.9319 26.6764 37.3795 27.3809 36.7279 27.9867C36.5874 28.1111 36.4451 28.2335 36.3012 28.354C36.1622 28.4683 36.0187 28.5679 35.8855 28.6654C35.755 28.7656 35.6153 28.8454 35.4874 28.9249C35.3579 29.0027 35.2397 29.0804 35.1176 29.1416C34.8734 29.2639 34.6665 29.3736 34.4581 29.4553C34.2572 29.5376 34.087 29.6104 33.9639 29.6361C33.7099 29.7076 33.5696 29.7384 33.5696 29.7384C33.3991 29.7758 33.2208 29.7439 33.0738 29.6498C32.9268 29.5558 32.8232 29.4072 32.7857 29.2367C32.767 29.1496 32.7661 29.0596 32.783 28.9721C32.7999 28.8845 32.8343 28.8013 32.8841 28.7274ZM21.5538 29.2374C21.5723 29.3218 21.6073 29.4018 21.6567 29.4727C21.7061 29.5435 21.769 29.604 21.8418 29.6506C21.9146 29.6972 21.9959 29.729 22.0809 29.7442C22.166 29.7593 22.2532 29.7576 22.3376 29.7391C22.3376 29.7391 22.478 29.7083 22.732 29.6368C22.8551 29.611 23.0252 29.5382 23.2262 29.456C23.4346 29.3742 23.6415 29.2647 23.8857 29.1423C24.0079 29.0811 24.126 29.0034 24.2555 28.9256C24.3833 28.846 24.523 28.7662 24.6536 28.6661C24.7867 28.5686 24.9303 28.4689 25.0693 28.3546C25.2132 28.2342 25.3554 28.1118 25.496 27.9874C26.1475 27.3814 26.6999 26.6769 27.133 25.8997C27.6179 25.0353 28.0043 23.9957 28.1935 22.8426C28.2194 22.6988 28.2326 22.5531 28.2517 22.4061L28.2756 22.1844L28.2873 22.0728C28.2888 22.1367 28.2869 21.9696 28.2873 21.9831L28.2881 21.9721L28.2895 21.95L28.2924 21.9058L28.3155 21.5497L28.3203 21.46C28.3208 21.4436 28.3225 21.4333 28.322 21.4118L28.3208 21.348L28.3142 21.0914L28.305 20.8325L28.2995 20.7023C28.2983 20.6608 28.2955 20.6193 28.2909 20.5779L28.2411 20.1061C28.2266 19.9473 28.1986 19.7897 28.1706 19.631C28.14 19.4731 28.1157 19.3123 28.077 19.1544L27.9576 18.6781C27.9189 18.518 27.8601 18.3636 27.8101 18.2054C27.7132 17.8873 27.5799 17.5805 27.4492 17.2698C27.3026 16.9672 27.1623 16.657 26.9833 16.3669L26.8539 16.1461C26.8116 16.0718 26.7663 15.9992 26.7179 15.9287C26.6239 15.7856 26.526 15.6446 26.4281 15.5033C26.019 14.9446 25.5586 14.4255 25.0527 13.9527C24.9246 13.8353 24.7917 13.7227 24.6593 13.6098C24.5289 13.4944 24.3888 13.3906 24.2498 13.2856C24.1099 13.1817 23.9735 13.073 23.8263 12.9793L23.608 12.8351L23.4983 12.7641L23.4434 12.7287L23.4159 12.7111L23.4021 12.7023C23.4276 12.719 23.3259 12.6524 23.4556 12.7376L23.1187 12.5209L23.0345 12.4668L23.0135 12.4533L23.0025 12.4448L22.9809 12.4281L22.8935 12.3633C22.8642 12.3418 22.8337 12.3218 22.8031 12.3017L22.78 12.2868L22.753 12.2649L22.6987 12.2211L22.4795 12.047C22.197 11.8028 21.9325 11.5386 21.6879 11.2565L21.5122 11.0392C21.4816 11.0041 21.4534 10.9669 21.4278 10.928L21.3473 10.8143C21.2918 10.7396 21.2351 10.6653 21.1883 10.5855L21.0381 10.3511C20.8523 10.0325 20.689 9.70134 20.5492 9.36007C20.4231 9.01714 20.2993 8.67038 20.2291 8.31464C20.1799 8.13858 20.1606 7.95908 20.1276 7.7812L20.1214 7.74781L20.1183 7.73107L20.1168 7.72274C20.1164 7.70571 20.114 7.84388 20.1146 7.78005L20.1078 7.69193L20.0942 7.51645L20.0806 7.34211C20.0765 7.287 20.0703 7.21658 20.0701 7.18883C20.0674 7.11468 20.0611 7.04004 20.0548 6.96503C20.0521 6.92695 20.0472 6.89116 20.0454 6.85097L20.0472 6.72056C20.0485 6.63374 20.0487 6.5468 20.0476 6.45973C20.0492 6.37323 20.0582 6.28846 20.0626 6.20291C20.0789 5.85999 20.1328 5.53007 20.1906 5.20772C20.3151 4.56569 20.5194 3.97685 20.7494 3.46208C20.9831 2.94893 21.2459 2.51415 21.4812 2.15763C21.6049 1.98598 21.7094 1.8192 21.8171 1.6908C21.9218 1.55876 22.0065 1.43599 22.0865 1.35017C22.1663 1.2564 22.2449 1.16167 22.3224 1.06599L22.3615 1.01738C22.4453 0.911183 22.4927 0.780721 22.4963 0.645445C22.5 0.510169 22.4599 0.377325 22.3819 0.266716C22.304 0.156107 22.1923 0.0736587 22.0637 0.0316614C21.935 -0.0103359 21.7963 -0.00963251 21.6681 0.0336667C21.6681 0.0336667 21.5296 0.0804556 21.2688 0.180253C21.1369 0.228477 20.9812 0.299569 20.7981 0.388746C20.6119 0.473904 20.4076 0.588053 20.1794 0.723731C19.729 0.999968 19.1935 1.37858 18.651 1.91183C18.0329 2.51975 17.5084 3.21603 17.0946 3.97791L16.9257 4.30351L16.8414 4.47058L16.7662 4.64348L16.6149 4.99702C16.5618 5.11596 16.5256 5.24101 16.4801 5.3654C16.4378 5.49056 16.3912 5.61657 16.3525 5.74565C16.3155 5.8766 16.2798 6.00791 16.2454 6.13957L16.1929 6.34032C16.177 6.41141 16.1634 6.48805 16.1489 6.56249C16.1206 6.71262 16.092 6.86485 16.067 7.01899C16.0522 7.10511 16.0468 7.15008 16.0379 7.21036L16.013 7.38345L15.988 7.55769L15.9755 7.64524C15.9761 7.58879 15.9729 7.73422 15.973 7.72446L15.9722 7.73815L15.9704 7.76551L15.9672 7.82024C15.9537 8.11265 15.9305 8.4108 15.9425 8.71325C15.9441 9.31921 16.0218 9.94019 16.1434 10.5661L16.2516 11.0347C16.2858 11.1927 16.3405 11.3449 16.3861 11.5013C16.4759 11.8148 16.5973 12.1198 16.7184 12.4284C16.98 13.0364 17.2958 13.633 17.6748 14.1978C17.7693 14.339 17.8717 14.4751 17.9727 14.6128C18.0241 14.6809 18.073 14.7514 18.1271 14.8175L18.2909 15.0154C18.4025 15.1454 18.5072 15.2828 18.6276 15.4058L18.9857 15.7795C19.1097 15.8997 19.238 16.0159 19.3654 16.1336L19.4613 16.2214L19.5096 16.2652L19.5655 16.3114L19.7916 16.4944L20.0209 16.6741L20.0785 16.7186L20.1071 16.7406L20.1275 16.7551L20.2089 16.8133L20.5348 17.0461C20.6715 17.1359 20.5767 17.074 20.609 17.0954L20.616 17.1006L20.63 17.111L20.6579 17.1319L20.7138 17.1732L20.8269 17.2537C20.9049 17.3037 20.9732 17.3671 21.046 17.4239C21.1949 17.5341 21.323 17.6685 21.4631 17.7877C21.7285 18.0438 21.9665 18.3231 22.1903 18.6093C22.4082 18.9007 22.5977 19.2071 22.7752 19.5177C22.9393 19.8348 23.0879 20.1564 23.2112 20.4864C23.2445 20.5681 23.2652 20.6531 23.294 20.7359C23.3219 20.819 23.3541 20.9012 23.3729 20.9862L23.442 21.2386L23.495 21.4476L23.5236 21.5496L23.5311 21.5751C23.5337 21.5834 23.5348 21.6031 23.5368 21.6165L23.5474 21.7056L23.5936 22.0596L23.5993 22.1035L23.6022 22.1254L23.6036 22.1364C23.6045 22.1572 23.6019 21.9975 23.6033 22.0688L23.6093 22.1328L23.6218 22.2607C23.6301 22.3459 23.6462 22.4317 23.6501 22.5162C23.6985 23.1724 23.669 23.8321 23.5623 24.4814C23.4603 25.1061 23.285 25.6875 23.0841 26.2055C22.9001 26.6665 22.6828 27.1136 22.434 27.5431L22.2782 27.8076C22.2285 27.8957 22.1815 27.9587 22.1389 28.0312C22.0522 28.1702 21.9818 28.2912 21.8932 28.3995C21.7328 28.609 21.6523 28.728 21.6523 28.728C21.6021 28.8018 21.5675 28.885 21.5506 28.9726C21.5336 29.0602 21.5347 29.1503 21.5538 29.2374ZM10.3214 29.2374C10.3399 29.3218 10.3749 29.4018 10.4243 29.4727C10.4737 29.5435 10.5366 29.604 10.6094 29.6506C10.6822 29.6972 10.7635 29.729 10.8485 29.7442C10.9336 29.7593 11.0208 29.7576 11.1052 29.7391C11.1052 29.7391 11.2456 29.7083 11.4996 29.6368C11.6227 29.611 11.7928 29.5382 11.9938 29.456C12.2022 29.3742 12.4091 29.2647 12.6533 29.1423C12.7755 29.0811 12.8936 29.0034 13.0231 28.9256C13.1509 28.846 13.2906 28.7662 13.4212 28.6661C13.5543 28.5686 13.6979 28.4689 13.8369 28.3546C13.9808 28.2342 14.123 28.1118 14.2635 27.9874C14.9151 27.3814 15.4675 26.6769 15.9006 25.8997C16.3855 25.0353 16.7719 23.9957 16.9611 22.8426C16.987 22.6988 17.0001 22.5531 17.0193 22.4061L17.0432 22.1844L17.0549 22.0728C17.0564 22.1367 17.0545 21.9696 17.0549 21.9831L17.0557 21.9721L17.0571 21.95L17.06 21.9058L17.0831 21.5497L17.0879 21.46C17.0884 21.4436 17.0901 21.4333 17.0896 21.4118L17.0884 21.348L17.0818 21.0914L17.0726 20.8325L17.0671 20.7023C17.0659 20.6608 17.0631 20.6193 17.0585 20.5779L17.0087 20.1061C16.9942 19.9473 16.9662 19.7897 16.9382 19.631C16.9076 19.4731 16.8832 19.3123 16.8446 19.1544L16.7252 18.6781C16.6865 18.518 16.6277 18.3636 16.5777 18.2054C16.4808 17.8873 16.3475 17.5805 16.2168 17.2698C16.0702 16.9672 15.9299 16.657 15.7509 16.3669L15.6215 16.1461C15.5792 16.0718 15.5339 15.9992 15.4855 15.9287C15.3915 15.7856 15.2936 15.6446 15.1957 15.5033C14.7866 14.9446 14.3262 14.4255 13.8203 13.9527C13.6922 13.8353 13.5593 13.7227 13.4269 13.6098C13.2965 13.4944 13.1564 13.3906 13.0174 13.2856C12.8775 13.1817 12.7411 13.073 12.5939 12.9793L12.3756 12.8351L12.2659 12.7641L12.211 12.7287L12.1835 12.7111L12.1697 12.7023C12.1952 12.719 12.0935 12.6524 12.2232 12.7376L11.8863 12.5209L11.8021 12.4668L11.7811 12.4533L11.7701 12.4448L11.7485 12.4281L11.6611 12.3633C11.6318 12.3418 11.6013 12.3218 11.5706 12.3017L11.5476 12.2868L11.5206 12.2649L11.4663 12.2211L11.247 12.047C10.9646 11.8028 10.7001 11.5386 10.4555 11.2565L10.2798 11.0392C10.2492 11.0041 10.221 10.9669 10.1954 10.928L10.1149 10.8143C10.0594 10.7396 10.0027 10.6653 9.95591 10.5855L9.80568 10.3511C9.61992 10.0325 9.45658 9.70134 9.31684 9.36007C9.19073 9.01714 9.06692 8.67038 8.99668 8.31464C8.9475 8.13858 8.92818 7.95908 8.89516 7.7812L8.88904 7.74781L8.88588 7.73107L8.88435 7.72274C8.88397 7.70571 8.88158 7.84388 8.88225 7.78005L8.87536 7.69193L8.86177 7.51645L8.84818 7.34211C8.84407 7.287 8.83785 7.21658 8.83766 7.18883C8.83498 7.11468 8.82867 7.04004 8.82245 6.96503C8.81967 6.92695 8.81479 6.89116 8.81297 6.85097L8.81479 6.72056C8.81613 6.63374 8.81626 6.5468 8.81517 6.45973C8.8168 6.37323 8.8258 6.28846 8.8302 6.20291C8.84646 5.85999 8.90043 5.53007 8.95822 5.20772C9.0827 4.56569 9.28699 3.97685 9.51701 3.46208C9.75067 2.94893 10.0135 2.51415 10.2488 2.15763C10.3725 1.98598 10.477 1.8192 10.5847 1.6908C10.6894 1.55876 10.7741 1.43599 10.8541 1.35017C10.9339 1.2564 11.0125 1.16167 11.09 1.06599L11.1291 1.01738C11.2129 0.911183 11.2603 0.780721 11.2639 0.645445C11.2676 0.510169 11.2275 0.377325 11.1495 0.266716C11.0716 0.156107 10.9599 0.0736587 10.8313 0.0316614C10.7026 -0.0103359 10.5639 -0.00963251 10.4357 0.0336667C10.4357 0.0336667 10.2972 0.0804556 10.0364 0.180253C9.90452 0.228477 9.74875 0.299569 9.56571 0.388746C9.37951 0.473904 9.17523 0.588053 8.94702 0.723731C8.49655 0.999968 7.96111 1.37858 7.41859 1.91183C6.80046 2.51975 6.27596 3.21603 5.86221 3.97791L5.69333 4.30351L5.60903 4.47058L5.53383 4.64348L5.38246 4.99702C5.32935 5.11596 5.29318 5.24101 5.24773 5.3654C5.20544 5.49056 5.15884 5.61657 5.12009 5.74565C5.0831 5.8766 5.0474 6.00791 5.01302 6.13957L4.96049 6.34032C4.94461 6.41141 4.93102 6.48805 4.91648 6.56249C4.88816 6.71262 4.85964 6.86485 4.83458 7.01899C4.81984 7.10511 4.81439 7.15008 4.80549 7.21036L4.78061 7.38345L4.75564 7.55769L4.7431 7.64524C4.74368 7.58879 4.74052 7.73422 4.74061 7.72446L4.73975 7.73815L4.73803 7.76551L4.73478 7.82024C4.72138 8.11265 4.69813 8.4108 4.71009 8.71325C4.71172 9.31921 4.78941 9.94019 4.91103 10.5661L5.01915 11.0347C5.0534 11.1927 5.10813 11.3449 5.15368 11.5013C5.24352 11.8148 5.36485 12.1198 5.48598 12.4284C5.74758 13.0364 6.06343 13.633 6.44243 14.1978C6.53687 14.339 6.63925 14.4751 6.74029 14.6128C6.79167 14.6809 6.84057 14.7514 6.89472 14.8175L7.05853 15.0154C7.1701 15.1454 7.27478 15.2828 7.39524 15.4058L7.75329 15.7795C7.87729 15.8997 8.0056 16.0159 8.13296 16.1336L8.22893 16.2214L8.27715 16.2652L8.33312 16.3114L8.55922 16.4944L8.78848 16.6741L8.84608 16.7186L8.87469 16.7406L8.89507 16.7551L8.9765 16.8133L9.30239 17.0461C9.43912 17.1359 9.3443 17.074 9.37664 17.0954L9.38363 17.1006L9.3976 17.111L9.42554 17.1319L9.48141 17.1732L9.59451 17.2537C9.67249 17.3037 9.74081 17.3671 9.81363 17.4239C9.96251 17.5341 10.0906 17.6685 10.2307 17.7877C10.4961 18.0438 10.7341 18.3231 10.9579 18.6093C11.1758 18.9007 11.3653 19.2071 11.5428 19.5177C11.7069 19.8348 11.8555 20.1564 11.9788 20.4864C12.0121 20.5681 12.0328 20.6531 12.0616 20.7359C12.0895 20.819 12.1217 20.9012 12.1405 20.9862L12.2096 21.2386L12.2626 21.4476L12.2912 21.5496L12.2987 21.5751C12.3013 21.5834 12.3024 21.6031 12.3044 21.6165L12.315 21.7056L12.3612 22.0596L12.3669 22.1035L12.3698 22.1254L12.3712 22.1364C12.3721 22.1572 12.3695 21.9975 12.3709 22.0688L12.3769 22.1328L12.3894 22.2607C12.3977 22.3459 12.4138 22.4317 12.4177 22.5162C12.466 23.1724 12.4366 23.8321 12.3299 24.4814C12.2279 25.1061 12.0526 25.6875 11.8517 26.2055C11.6677 26.6665 11.4504 27.1136 11.2016 27.5431L11.0458 27.8076C10.9961 27.8957 10.9491 27.9587 10.9065 28.0312C10.8198 28.1702 10.7494 28.2912 10.6608 28.3995C10.5004 28.609 10.4199 28.728 10.4199 28.728C10.3697 28.8018 10.3351 28.885 10.3182 28.9726C10.3012 29.0602 10.3023 29.1503 10.3214 29.2374ZM6.22485 21.2593C6.1697 21.1758 6.09865 21.104 6.01576 21.048C5.93287 20.992 5.83976 20.9529 5.74174 20.9329C5.64373 20.9129 5.54273 20.9124 5.44453 20.9314C5.34632 20.9505 5.25282 20.9886 5.16937 21.0438L4.98901 21.1629L4.76913 21.3104C4.68321 21.3642 4.57786 21.4461 4.45902 21.5372C4.34248 21.6285 4.20173 21.7299 4.0649 21.8455C3.92712 21.962 3.77412 22.0875 3.61491 22.2316C3.29753 22.521 2.9368 22.8658 2.57014 23.2977C2.3805 23.5082 2.19727 23.7472 2.00485 23.9997L1.72651 24.4028C1.62901 24.5392 1.54529 24.69 1.45123 24.8393C1.08476 25.4427 0.752457 26.1498 0.489234 26.9553L0.392116 27.2613C0.361401 27.3648 0.33595 27.4709 0.30935 27.5778L0.231177 27.9022L0.169844 28.2359C0.150612 28.3484 0.127553 28.4618 0.111956 28.5767L0.0706212 28.9254L0.0505278 29.1023L0.0455523 29.1468L0.0430646 29.1691C0.0455523 29.332 0.0430646 29.2248 0.0433516 29.2658L0.0386631 29.3393L0.0199093 29.6355L0.000964084 29.9354C-0.000279794 29.9464 -0.000184076 29.9622 0.000485704 29.98L0.00182526 30.0306L0.00479139 30.1323L0.0130202 30.3372C0.0261287 30.6085 0.0361754 30.9039 0.0732047 31.1471L0.122194 31.5335L0.148316 31.7289C0.158841 31.7937 0.173863 31.8573 0.186589 31.9219L0.26878 32.3111C0.298825 32.4409 0.320736 32.5757 0.361306 32.7027C0.632854 33.7461 1.07223 34.7832 1.64977 35.7586C2.2255 36.7364 2.93364 37.6574 3.73805 38.5035C5.34897 40.1982 7.32817 41.6026 9.49414 42.7139C10.5789 43.2672 11.713 43.7464 12.8793 44.1615L13.3187 44.3128L13.539 44.3885L13.7611 44.4571L14.6538 44.7295L15.5579 44.9705C15.8604 45.0501 16.1658 45.1139 16.471 45.1859C16.776 45.2599 17.0833 45.3189 17.3918 45.3766C17.7001 45.4355 18.0089 45.4963 18.3196 45.5415C18.6301 45.5889 18.9409 45.6429 19.2529 45.6842L20.1914 45.7964C20.5047 45.8314 20.819 45.8538 21.1333 45.8827C21.2905 45.8952 21.4477 45.9124 21.6051 45.9209L22.0777 45.9451C22.3929 45.9591 22.7082 45.9812 23.0235 45.9832L24.0203 46L24.8893 45.9844L25.1065 45.9803C25.1409 45.9801 25.1815 45.9783 25.2234 45.9762L25.3465 45.9704L25.839 45.9468L26.3311 45.9221C26.4958 45.9146 26.6478 45.8974 26.8066 45.8848C27.1209 45.8559 27.4353 45.8334 27.7486 45.7984L28.6872 45.6865C28.9995 45.6471 29.3101 45.5917 29.6206 45.5447C29.9314 45.4995 30.2402 45.4385 30.5486 45.3797C30.857 45.3213 31.1649 45.2648 31.4697 45.1901C31.7749 45.118 32.0804 45.0541 32.3828 44.9746L33.2873 44.7345L34.1801 44.4619L34.4022 44.3932L34.6226 44.3175L35.062 44.166C36.2288 43.7519 37.3634 43.2728 38.4483 42.7194C40.6151 41.6086 42.5952 40.2041 44.2068 38.5088C45.0114 37.6621 45.72 36.7408 46.2961 35.7626C46.8736 34.7865 47.3132 33.7489 47.5849 32.7048C47.8589 31.6616 47.9656 30.6174 47.9257 29.6431L47.9086 29.2807L47.904 29.1911C47.9032 29.1578 47.9043 29.2341 47.9018 29.1108L47.8993 29.0926L47.8944 29.0564L47.8746 28.9118L47.8356 28.6255L47.8234 28.5429L47.8084 28.4496L47.7778 28.2644L47.7139 27.9014L47.6355 27.5769C47.6089 27.4701 47.5842 27.3638 47.5531 27.2602L47.4556 26.954C47.1915 26.1485 46.8593 25.4409 46.4923 24.8374C46.3981 24.6882 46.3142 24.5374 46.2166 24.4009L45.9378 23.998C45.7451 23.7456 45.5621 23.5063 45.3721 23.2961C45.0049 22.8644 44.6441 22.5196 44.3263 22.2305C44.167 22.0865 44.0137 21.9611 43.876 21.8446C43.7381 21.728 43.6037 21.6338 43.4888 21.544C43.2599 21.3637 43.0698 21.2456 42.9477 21.1597L42.7596 21.0337C42.5052 20.8641 42.161 20.8584 41.8975 21.0466C41.8165 21.1044 41.7477 21.1776 41.695 21.2621C41.6423 21.3465 41.6067 21.4405 41.5904 21.5387C41.574 21.6368 41.5771 21.7373 41.5996 21.8342C41.622 21.9312 41.6633 22.0228 41.7212 22.1038L41.7461 22.1386L41.8659 22.3063C41.9443 22.4168 42.0658 22.5758 42.2089 22.7916C42.3569 23.0035 42.5264 23.272 42.7177 23.5847C42.8067 23.7455 42.9108 23.9116 43.0043 24.0969L43.1529 24.3793C43.2046 24.4753 43.2474 24.5791 43.297 24.682C43.3991 24.8866 43.4797 25.1126 43.578 25.3388L43.705 25.6938C43.7512 25.8128 43.7806 25.94 43.8205 26.0651C43.9622 26.5719 44.0815 27.1146 44.1209 27.6887L44.136 27.9045C44.1399 27.9768 44.137 28.0502 44.1399 28.123L44.1451 28.3427L44.1332 28.5359L44.123 28.7394L44.1016 29.0276L44.0908 29.1731L44.0881 29.2097L44.0867 29.2279C44.0845 29.1169 44.0845 29.2053 44.0834 29.1842L44.0728 29.241L44.0315 29.4683C43.9181 30.0987 43.7211 30.7111 43.446 31.2895C42.8801 32.4964 41.9027 33.6667 40.6124 34.7036C39.322 35.7412 37.7295 36.6443 35.9594 37.3677C35.0509 37.7333 34.1233 38.0499 33.1808 38.3161C32.2046 38.5954 31.2143 38.8231 30.2141 38.9981C29.1908 39.1807 28.1599 39.318 27.1245 39.4094C26.8637 39.4337 26.6011 39.4462 26.3393 39.4656C26.2098 39.4734 26.0739 39.4862 25.9497 39.4911L25.5747 39.5072L25.1996 39.5243L25.1059 39.5287C25.0753 39.5303 25.0437 39.5317 25.0056 39.5318L24.7884 39.5345L23.9194 39.5461L23.1782 39.5359C22.914 39.5371 22.6514 39.5186 22.3882 39.509C22.125 39.4977 21.8618 39.4891 21.6002 39.4678C21.3384 39.4483 21.0758 39.4358 20.815 39.4115C19.7795 39.3204 18.7484 39.184 17.7248 39.0024C16.7105 38.8246 15.7174 38.597 14.7574 38.3209C13.8143 38.0556 12.8864 37.7393 11.9777 37.3734C10.2069 36.6504 8.61357 35.7472 7.32243 34.7089C6.03138 33.6712 5.0534 32.4997 4.48753 31.2915C4.44448 31.2176 4.42075 31.14 4.38688 31.0645L4.29081 30.8374C4.27521 30.7996 4.25703 30.7622 4.24335 30.7241L4.20565 30.6096L4.12824 30.3815C4.06691 30.2197 4.04548 30.1041 4.0051 29.9728L3.9762 29.8763L3.9607 29.828L3.95276 29.8038C3.94913 29.794 3.94685 29.7838 3.94597 29.7734L3.90253 29.476L3.85966 29.1823L3.84904 29.1095C3.84895 29.1384 3.8455 29.0191 3.84818 29.1698L3.84684 29.1556L3.84407 29.1273L3.83287 29.014L3.80914 28.7882C3.80254 28.7132 3.80292 28.6388 3.799 28.5644L3.78972 28.3418L3.79517 28.122C3.79795 28.0491 3.79441 27.9756 3.79862 27.9033L3.81402 27.6874C3.8544 27.1132 3.97343 26.5701 4.11581 26.0633C4.1559 25.9382 4.18537 25.811 4.23177 25.692L4.35913 25.337C4.45768 25.1109 4.53805 24.8847 4.64063 24.6803C4.69029 24.5774 4.73315 24.4737 4.78501 24.3777L4.93389 24.0954C5.02728 23.9099 5.13186 23.7441 5.22094 23.5833C5.31366 23.4249 5.41001 23.284 5.49192 23.1492C5.5743 23.0131 5.65372 22.9049 5.72318 22.7983C5.79313 22.6942 5.85293 22.6021 5.91962 22.5157L6.07721 22.303L6.20466 22.1284C6.38569 21.8789 6.40492 21.5317 6.22485 21.2593Z" fill="#F3ECE5"/>
</g>
<defs>
<clipPath id="clip0_918_17">
<rect width="47.9338" height="46" fill="white"/>
</clipPath>
</defs>
</svg>
