<svg width="82" height="132" viewBox="0 0 82 132" fill="none" xmlns="http://www.w3.org/2000/svg">
<path d="M41 5.05353e-08C30.1968 -0.000531812 19.8299 4.19717 12.1526 11.6808C4.47531 19.1644 0.108032 29.329 0 39.9654C0 67.6183 36.1313 128.677 37.6688 129.989C38.5971 130.77 39.7784 131.2 41 131.2C42.2216 131.2 43.4029 130.77 44.3312 129.989C46.125 128.677 82 67.6183 82 39.9654C81.892 29.329 77.5247 19.1644 69.8474 11.6808C62.1701 4.19717 51.8032 -0.000531812 41 5.05353e-08Z" fill="#AC2200"/>
<path d="M50.8841 48.7274C50.8841 48.7274 50.9647 48.6084 51.125 48.3989C51.2137 48.2906 51.2841 48.1696 51.3707 48.0307C51.4133 47.9581 51.4603 47.8951 51.5101 47.8071L51.6658 47.5425C51.9147 47.113 52.1319 46.666 52.3159 46.2049C52.5168 45.6869 52.6921 45.1055 52.7941 44.4808C52.9008 43.8315 52.9303 43.1718 52.882 42.5156C52.878 42.4311 52.862 42.3452 52.8536 42.2601L52.8411 42.1322L52.8352 42.0682C52.8337 41.9969 52.8364 42.1566 52.8355 42.1358L52.834 42.1248L52.8312 42.1029L52.8254 42.059L52.7792 41.7051L52.7687 41.6159C52.7668 41.6025 52.7655 41.5828 52.7629 41.5746L52.7555 41.549L52.7269 41.447L52.6738 41.238L52.6048 40.9856C52.5858 40.9006 52.5538 40.8184 52.5258 40.7353C52.497 40.6525 52.4764 40.5674 52.4431 40.4858C52.3197 40.156 52.1711 39.8342 52.007 39.5171C51.8294 39.2065 51.6399 38.9002 51.4221 38.6088C51.1984 38.3225 50.9604 38.0432 50.6949 37.7871C50.4249 37.5344 50.1372 37.3012 49.8339 37.0895C49.6961 36.999 49.7899 37.0602 49.7565 37.0381L49.7463 37.0309L49.726 37.0163L49.6852 36.9872L49.6037 36.9291L49.4407 36.8126L49.3593 36.7544L49.3389 36.7399L49.3103 36.7179L49.2527 36.6734L49.0235 36.4937L48.7974 36.3108L48.7414 36.2645L48.6932 36.2207L48.5972 36.1329C48.4698 36.0152 48.3415 35.899 48.2176 35.7789L47.8596 35.4051C47.7391 35.2823 47.6344 35.1448 47.5229 35.0147L47.3591 34.8169C47.3049 34.7507 47.256 34.6802 47.2046 34.6121C47.1036 34.4743 47.0012 34.3383 46.9068 34.1971C46.5278 33.6323 46.2119 33.0358 45.9503 32.4278C45.8292 32.1191 45.7079 31.8141 45.618 31.5006C45.5725 31.3442 45.5177 31.192 45.4835 31.034L45.3754 30.5654C45.2537 29.9396 45.176 29.3185 45.1744 28.7126C45.1626 28.4101 45.1857 28.112 45.1991 27.8196L45.2024 27.7648L45.2041 27.7375L45.2049 27.7238C45.2048 27.7336 45.208 27.588 45.2074 27.6446L45.22 27.557L45.2449 27.3828L45.2698 27.2097C45.2787 27.1494 45.2841 27.1045 45.2989 27.0183C45.324 26.8642 45.3525 26.712 45.3808 26.5618C45.3954 26.4874 45.4089 26.4107 45.4248 26.3396L45.4774 26.1389C45.5121 26.0058 45.5478 25.8745 45.5844 25.745C45.6232 25.6159 45.6698 25.4899 45.7121 25.3647C45.7575 25.2403 45.7937 25.1153 45.8468 24.9964L45.9982 24.6428L46.0734 24.4699L46.1577 24.3028L46.3266 23.9772C46.7404 23.2154 47.2649 22.5191 47.883 21.9112C48.4256 21.3779 48.9611 20.9993 49.4114 20.7231C49.6397 20.5875 49.8439 20.4732 50.0301 20.3881C50.2131 20.2989 50.3689 20.2277 50.5008 20.1796C50.7617 20.0798 50.9001 20.033 50.9001 20.033C51.0283 19.9897 51.1671 19.989 51.2957 20.031C51.4244 20.073 51.536 20.1554 51.6139 20.266C51.6919 20.3767 51.732 20.5095 51.7284 20.6448C51.7247 20.7801 51.6774 20.9105 51.5935 21.0167L51.5545 21.0653C51.5545 21.0653 51.4719 21.1684 51.3185 21.3495C51.2385 21.4354 51.1538 21.5581 51.0492 21.6901C50.9414 21.8186 50.8369 21.9853 50.7132 22.157C50.478 22.5136 50.2151 22.9483 49.9814 23.4614C49.7513 23.9763 49.5471 24.565 49.4226 25.207C49.3649 25.5294 49.3109 25.8593 49.2946 26.2022C49.2902 26.2878 49.2812 26.3726 49.2796 26.4591C49.2807 26.5461 49.2806 26.6331 49.2792 26.7199L49.2774 26.8503C49.2792 26.8906 49.2841 26.9264 49.2869 26.9644C49.2931 27.0394 49.2994 27.1139 49.3021 27.1882C49.3023 27.216 49.3085 27.2863 49.3126 27.3414L49.3262 27.5158L49.3398 27.6913L49.3467 27.7794C49.346 27.8432 49.3484 27.705 49.3488 27.7221L49.3503 27.7304L49.3535 27.7471L49.3596 27.7805C49.3927 27.9584 49.412 28.1379 49.4611 28.314C49.5313 28.6697 49.6552 29.0166 49.7813 29.3594C49.9207 29.7008 50.0841 30.032 50.2701 30.3504L50.4203 30.5848C50.467 30.6646 50.5238 30.739 50.5793 30.8137L50.6597 30.9274C50.6854 30.966 50.7132 31.0032 50.7441 31.0385L50.9198 31.2558C51.1644 31.5379 51.429 31.8021 51.7114 32.0464L51.9306 32.2204L51.9849 32.2642L52.0119 32.2861L52.035 32.3011C52.0656 32.3212 52.0961 32.3411 52.1254 32.3626L52.2129 32.4275L52.2344 32.4441L52.2454 32.4526L52.2664 32.4661L52.3506 32.5203L52.519 32.6286L52.6032 32.6828L52.6453 32.7098L52.6664 32.7233L52.6769 32.7301C52.6504 32.7127 52.7511 32.7786 52.6202 32.6928C53.2124 33.0607 53.7696 33.4822 54.2847 33.952C54.7905 34.4248 55.2509 34.944 55.66 35.5026C55.758 35.6439 55.8559 35.785 55.9498 35.928C55.9984 35.9985 56.0434 36.0712 56.0858 36.1454L56.2153 36.3663C56.3942 36.6564 56.5346 36.9666 56.6811 37.2691C56.8118 37.5798 56.9451 37.8867 57.0421 38.2047C57.0919 38.363 57.1509 38.5173 57.1895 38.6775L57.3089 39.1537C57.3477 39.3117 57.3719 39.4724 57.4025 39.6304C57.4305 39.789 57.4586 39.9466 57.473 40.1054L57.5229 40.5773C57.5275 40.6147 57.5298 40.6572 57.5314 40.7016L57.5369 40.8319L57.5461 41.0907L57.5527 41.3473L57.554 41.4111C57.5544 41.4327 57.5527 41.4429 57.5522 41.4594L57.5475 41.549L57.5243 41.9051L57.5214 41.9493L57.52 41.9715L57.5192 41.9825C57.5188 41.9691 57.5208 42.1361 57.5192 42.0721L57.5076 42.1838L57.4836 42.4055C57.4645 42.5525 57.4514 42.6982 57.4255 42.842C57.2362 43.995 56.8499 45.0346 56.3649 45.899C55.9319 46.6764 55.3795 47.3809 54.7279 47.9867C54.5874 48.1111 54.4451 48.2335 54.3012 48.354C54.1622 48.4683 54.0187 48.5679 53.8855 48.6654C53.755 48.7656 53.6153 48.8454 53.4874 48.9249C53.3579 49.0027 53.2397 49.0804 53.1176 49.1416C52.8734 49.2639 52.6665 49.3736 52.4581 49.4553C52.2572 49.5376 52.087 49.6104 51.9639 49.6361C51.7099 49.7076 51.5696 49.7384 51.5696 49.7384C51.3991 49.7758 51.2208 49.7439 51.0738 49.6498C50.9268 49.5558 50.8232 49.4072 50.7857 49.2367C50.767 49.1496 50.7661 49.0596 50.783 48.9721C50.7999 48.8845 50.8343 48.8013 50.8841 48.7274ZM39.5538 49.2374C39.5723 49.3218 39.6073 49.4018 39.6567 49.4727C39.7061 49.5435 39.769 49.604 39.8418 49.6506C39.9146 49.6972 39.9959 49.729 40.0809 49.7442C40.166 49.7593 40.2532 49.7576 40.3376 49.7391C40.3376 49.7391 40.478 49.7083 40.732 49.6368C40.8551 49.611 41.0252 49.5382 41.2262 49.456C41.4346 49.3742 41.6415 49.2647 41.8857 49.1423C42.0079 49.0811 42.126 49.0034 42.2555 48.9256C42.3833 48.846 42.523 48.7662 42.6536 48.6661C42.7867 48.5686 42.9303 48.4689 43.0693 48.3546C43.2132 48.2342 43.3554 48.1118 43.496 47.9874C44.1475 47.3814 44.6999 46.6769 45.133 45.8997C45.6179 45.0353 46.0043 43.9957 46.1935 42.8426C46.2194 42.6988 46.2326 42.5531 46.2517 42.4061L46.2756 42.1844L46.2873 42.0728C46.2888 42.1367 46.2869 41.9696 46.2873 41.9831L46.2881 41.9721L46.2895 41.95L46.2924 41.9058L46.3155 41.5497L46.3203 41.46C46.3208 41.4436 46.3225 41.4333 46.322 41.4118L46.3208 41.348L46.3142 41.0914L46.305 40.8325L46.2995 40.7023C46.2983 40.6608 46.2955 40.6193 46.2909 40.5779L46.2411 40.1061C46.2266 39.9473 46.1986 39.7897 46.1706 39.631C46.14 39.4731 46.1157 39.3123 46.077 39.1544L45.9576 38.6781C45.9189 38.518 45.8601 38.3636 45.8101 38.2054C45.7132 37.8873 45.5799 37.5805 45.4492 37.2698C45.3026 36.9672 45.1623 36.657 44.9833 36.3669L44.8539 36.1461C44.8116 36.0718 44.7663 35.9992 44.7179 35.9287C44.6239 35.7856 44.526 35.6446 44.4281 35.5033C44.019 34.9446 43.5586 34.4255 43.0527 33.9527C42.9246 33.8353 42.7917 33.7227 42.6593 33.6098C42.5289 33.4944 42.3888 33.3906 42.2498 33.2856C42.1099 33.1817 41.9735 33.073 41.8263 32.9793L41.608 32.8351L41.4983 32.7641L41.4434 32.7287L41.4159 32.7111L41.4021 32.7023C41.4276 32.719 41.3259 32.6524 41.4556 32.7376L41.1187 32.5209L41.0345 32.4668L41.0135 32.4533L41.0025 32.4448L40.9809 32.4281L40.8935 32.3633C40.8642 32.3418 40.8337 32.3218 40.8031 32.3017L40.78 32.2868L40.753 32.2649L40.6987 32.2211L40.4795 32.047C40.197 31.8028 39.9325 31.5386 39.6879 31.2565L39.5122 31.0392C39.4816 31.0041 39.4534 30.9669 39.4278 30.928L39.3473 30.8143C39.2918 30.7396 39.2351 30.6653 39.1883 30.5855L39.0381 30.3511C38.8523 30.0325 38.689 29.7013 38.5492 29.3601C38.4231 29.0171 38.2993 28.6704 38.2291 28.3146C38.1799 28.1386 38.1606 27.9591 38.1276 27.7812L38.1214 27.7478L38.1183 27.7311L38.1168 27.7227C38.1164 27.7057 38.114 27.8439 38.1146 27.7801L38.1078 27.6919L38.0942 27.5164L38.0806 27.3421C38.0765 27.287 38.0703 27.2166 38.0701 27.1888C38.0674 27.1147 38.0611 27.04 38.0548 26.965C38.0521 26.9269 38.0472 26.8912 38.0454 26.851L38.0472 26.7206C38.0485 26.6337 38.0487 26.5468 38.0476 26.4597C38.0492 26.3732 38.0582 26.2885 38.0626 26.2029C38.0789 25.86 38.1328 25.5301 38.1906 25.2077C38.3151 24.5657 38.5194 23.9769 38.7494 23.4621C38.9831 22.9489 39.2459 22.5141 39.4812 22.1576C39.6049 21.986 39.7094 21.8192 39.8171 21.6908C39.9218 21.5588 40.0065 21.436 40.0865 21.3502C40.1663 21.2564 40.2449 21.1617 40.3224 21.066L40.3615 21.0174C40.4453 20.9112 40.4927 20.7807 40.4963 20.6454C40.5 20.5102 40.4599 20.3773 40.3819 20.2667C40.304 20.1561 40.1923 20.0737 40.0637 20.0317C39.935 19.9897 39.7963 19.9904 39.6681 20.0337C39.6681 20.0337 39.5296 20.0805 39.2688 20.1803C39.1369 20.2285 38.9812 20.2996 38.7981 20.3887C38.6119 20.4739 38.4076 20.5881 38.1794 20.7237C37.729 21 37.1935 21.3786 36.651 21.9118C36.0329 22.5198 35.5084 23.216 35.0946 23.9779L34.9257 24.3035L34.8414 24.4706L34.7662 24.6435L34.6149 24.997C34.5618 25.116 34.5256 25.241 34.4801 25.3654C34.4378 25.4906 34.3912 25.6166 34.3525 25.7456C34.3155 25.8766 34.2798 26.0079 34.2454 26.1396L34.1929 26.3403C34.177 26.4114 34.1634 26.488 34.1489 26.5625C34.1206 26.7126 34.092 26.8648 34.067 27.019C34.0522 27.1051 34.0468 27.1501 34.0379 27.2104L34.013 27.3834L33.988 27.5577L33.9755 27.6452C33.9761 27.5888 33.9729 27.7342 33.973 27.7245L33.9722 27.7381L33.9704 27.7655L33.9672 27.8202C33.9537 28.1126 33.9305 28.4108 33.9425 28.7132C33.9441 29.3192 34.0218 29.9402 34.1434 30.5661L34.2516 31.0347C34.2858 31.1927 34.3405 31.3449 34.3861 31.5013C34.4759 31.8148 34.5973 32.1198 34.7184 32.4284C34.98 33.0364 35.2958 33.633 35.6748 34.1978C35.7693 34.339 35.8717 34.4751 35.9727 34.6128C36.0241 34.6809 36.073 34.7514 36.1271 34.8175L36.2909 35.0154C36.4025 35.1454 36.5072 35.2828 36.6276 35.4058L36.9857 35.7795C37.1097 35.8997 37.238 36.0159 37.3654 36.1336L37.4613 36.2214L37.5096 36.2652L37.5655 36.3114L37.7916 36.4944L38.0209 36.6741L38.0785 36.7186L38.1071 36.7406L38.1275 36.7551L38.2089 36.8133L38.5348 37.0461C38.6715 37.1359 38.5767 37.074 38.609 37.0954L38.616 37.1006L38.63 37.111L38.6579 37.1319L38.7138 37.1732L38.8269 37.2537C38.9049 37.3037 38.9732 37.3671 39.046 37.4239C39.1949 37.5341 39.323 37.6685 39.4631 37.7877C39.7285 38.0438 39.9665 38.3231 40.1903 38.6093C40.4082 38.9007 40.5977 39.2071 40.7752 39.5177C40.9393 39.8348 41.0879 40.1564 41.2112 40.4864C41.2445 40.5681 41.2652 40.6531 41.294 40.7359C41.3219 40.819 41.3541 40.9012 41.3729 40.9862L41.442 41.2386L41.495 41.4476L41.5236 41.5496L41.5311 41.5751C41.5337 41.5834 41.5348 41.6031 41.5368 41.6165L41.5474 41.7056L41.5936 42.0596L41.5993 42.1035L41.6022 42.1254L41.6036 42.1364C41.6045 42.1572 41.6019 41.9975 41.6033 42.0688L41.6093 42.1328L41.6218 42.2607C41.6301 42.3459 41.6462 42.4317 41.6501 42.5162C41.6985 43.1724 41.669 43.8321 41.5623 44.4814C41.4603 45.1061 41.285 45.6875 41.0841 46.2055C40.9001 46.6665 40.6828 47.1136 40.434 47.5431L40.2782 47.8076C40.2285 47.8957 40.1815 47.9587 40.1389 48.0312C40.0522 48.1702 39.9818 48.2912 39.8932 48.3995C39.7328 48.609 39.6523 48.728 39.6523 48.728C39.6021 48.8018 39.5675 48.885 39.5506 48.9726C39.5336 49.0602 39.5347 49.1503 39.5538 49.2374ZM28.3214 49.2374C28.3399 49.3218 28.3749 49.4018 28.4243 49.4727C28.4737 49.5435 28.5366 49.604 28.6094 49.6506C28.6822 49.6972 28.7635 49.729 28.8485 49.7442C28.9336 49.7593 29.0208 49.7576 29.1052 49.7391C29.1052 49.7391 29.2456 49.7083 29.4996 49.6368C29.6227 49.611 29.7928 49.5382 29.9938 49.456C30.2022 49.3742 30.4091 49.2647 30.6533 49.1423C30.7755 49.0811 30.8936 49.0034 31.0231 48.9256C31.1509 48.846 31.2906 48.7662 31.4212 48.6661C31.5543 48.5686 31.6979 48.4689 31.8369 48.3546C31.9808 48.2342 32.123 48.1118 32.2635 47.9874C32.9151 47.3814 33.4675 46.6769 33.9006 45.8997C34.3855 45.0353 34.7719 43.9957 34.9611 42.8426C34.987 42.6988 35.0001 42.5531 35.0193 42.4061L35.0432 42.1844L35.0549 42.0728C35.0564 42.1367 35.0545 41.9696 35.0549 41.9831L35.0557 41.9721L35.0571 41.95L35.06 41.9058L35.0831 41.5497L35.0879 41.46C35.0884 41.4436 35.0901 41.4333 35.0896 41.4118L35.0884 41.348L35.0818 41.0914L35.0726 40.8325L35.0671 40.7023C35.0659 40.6608 35.0631 40.6193 35.0585 40.5779L35.0087 40.1061C34.9942 39.9473 34.9662 39.7897 34.9382 39.631C34.9076 39.4731 34.8832 39.3123 34.8446 39.1544L34.7252 38.6781C34.6865 38.518 34.6277 38.3636 34.5777 38.2054C34.4808 37.8873 34.3475 37.5805 34.2168 37.2698C34.0702 36.9672 33.9299 36.657 33.7509 36.3669L33.6215 36.1461C33.5792 36.0718 33.5339 35.9992 33.4855 35.9287C33.3915 35.7856 33.2936 35.6446 33.1957 35.5033C32.7866 34.9446 32.3262 34.4255 31.8203 33.9527C31.6922 33.8353 31.5593 33.7227 31.4269 33.6098C31.2965 33.4944 31.1564 33.3906 31.0174 33.2856C30.8775 33.1817 30.7411 33.073 30.5939 32.9793L30.3756 32.8351L30.2659 32.7641L30.211 32.7287L30.1835 32.7111L30.1697 32.7023C30.1952 32.719 30.0935 32.6524 30.2232 32.7376L29.8863 32.5209L29.8021 32.4668L29.7811 32.4533L29.7701 32.4448L29.7485 32.4281L29.6611 32.3633C29.6318 32.3418 29.6013 32.3218 29.5706 32.3017L29.5476 32.2868L29.5206 32.2649L29.4663 32.2211L29.247 32.047C28.9646 31.8028 28.7001 31.5386 28.4555 31.2565L28.2798 31.0392C28.2492 31.0041 28.221 30.9669 28.1954 30.928L28.1149 30.8143C28.0594 30.7396 28.0027 30.6653 27.9559 30.5855L27.8057 30.3511C27.6199 30.0325 27.4566 29.7013 27.3168 29.3601C27.1907 29.0171 27.0669 28.6704 26.9967 28.3146C26.9475 28.1386 26.9282 27.9591 26.8952 27.7812L26.889 27.7478L26.8859 27.7311L26.8844 27.7227C26.884 27.7057 26.8816 27.8439 26.8822 27.7801L26.8754 27.6919L26.8618 27.5164L26.8482 27.3421C26.8441 27.287 26.8379 27.2166 26.8377 27.1888C26.835 27.1147 26.8287 27.04 26.8224 26.965C26.8197 26.9269 26.8148 26.8912 26.813 26.851L26.8148 26.7206C26.8161 26.6337 26.8163 26.5468 26.8152 26.4597C26.8168 26.3732 26.8258 26.2885 26.8302 26.2029C26.8465 25.86 26.9004 25.5301 26.9582 25.2077C27.0827 24.5657 27.287 23.9769 27.517 23.4621C27.7507 22.9489 28.0135 22.5141 28.2488 22.1576C28.3725 21.986 28.477 21.8192 28.5847 21.6908C28.6894 21.5588 28.7741 21.436 28.8541 21.3502C28.9339 21.2564 29.0125 21.1617 29.09 21.066L29.1291 21.0174C29.2129 20.9112 29.2603 20.7807 29.2639 20.6454C29.2676 20.5102 29.2275 20.3773 29.1495 20.2667C29.0716 20.1561 28.9599 20.0737 28.8313 20.0317C28.7026 19.9897 28.5639 19.9904 28.4357 20.0337C28.4357 20.0337 28.2972 20.0805 28.0364 20.1803C27.9045 20.2285 27.7488 20.2996 27.5657 20.3887C27.3795 20.4739 27.1752 20.5881 26.947 20.7237C26.4965 21 25.9611 21.3786 25.4186 21.9118C24.8005 22.5198 24.276 23.216 23.8622 23.9779L23.6933 24.3035L23.609 24.4706L23.5338 24.6435L23.3825 24.997C23.3294 25.116 23.2932 25.241 23.2477 25.3654C23.2054 25.4906 23.1588 25.6166 23.1201 25.7456C23.0831 25.8766 23.0474 26.0079 23.013 26.1396L22.9605 26.3403C22.9446 26.4114 22.931 26.488 22.9165 26.5625C22.8882 26.7126 22.8596 26.8648 22.8346 27.019C22.8198 27.1051 22.8144 27.1501 22.8055 27.2104L22.7806 27.3834L22.7556 27.5577L22.7431 27.6452C22.7437 27.5888 22.7405 27.7342 22.7406 27.7245L22.7398 27.7381L22.738 27.7655L22.7348 27.8202C22.7214 28.1126 22.6981 28.4108 22.7101 28.7132C22.7117 29.3192 22.7894 29.9402 22.911 30.5661L23.0191 31.0347C23.0534 31.1927 23.1081 31.3449 23.1537 31.5013C23.2435 31.8148 23.3648 32.1198 23.486 32.4284C23.7476 33.0364 24.0634 33.633 24.4424 34.1978C24.5369 34.339 24.6393 34.4751 24.7403 34.6128C24.7917 34.6809 24.8406 34.7514 24.8947 34.8175L25.0585 35.0154C25.1701 35.1454 25.2748 35.2828 25.3952 35.4058L25.7533 35.7795C25.8773 35.8997 26.0056 36.0159 26.133 36.1336L26.2289 36.2214L26.2771 36.2652L26.3331 36.3114L26.5592 36.4944L26.7885 36.6741L26.8461 36.7186L26.8747 36.7406L26.8951 36.7551L26.9765 36.8133L27.3024 37.0461C27.4391 37.1359 27.3443 37.074 27.3766 37.0954L27.3836 37.1006L27.3976 37.111L27.4255 37.1319L27.4814 37.1732L27.5945 37.2537C27.6725 37.3037 27.7408 37.3671 27.8136 37.4239C27.9625 37.5341 28.0906 37.6685 28.2307 37.7877C28.4961 38.0438 28.7341 38.3231 28.9579 38.6093C29.1758 38.9007 29.3653 39.2071 29.5428 39.5177C29.7069 39.8348 29.8555 40.1564 29.9788 40.4864C30.0121 40.5681 30.0328 40.6531 30.0616 40.7359C30.0895 40.819 30.1217 40.9012 30.1405 40.9862L30.2096 41.2386L30.2626 41.4476L30.2912 41.5496L30.2987 41.5751C30.3013 41.5834 30.3024 41.6031 30.3044 41.6165L30.315 41.7056L30.3612 42.0596L30.3669 42.1035L30.3698 42.1254L30.3712 42.1364C30.3721 42.1572 30.3695 41.9975 30.3709 42.0688L30.3769 42.1328L30.3894 42.2607C30.3977 42.3459 30.4138 42.4317 30.4177 42.5162C30.466 43.1724 30.4366 43.8321 30.3299 44.4814C30.2279 45.1061 30.0526 45.6875 29.8517 46.2055C29.6677 46.6665 29.4504 47.1136 29.2016 47.5431L29.0458 47.8076C28.9961 47.8957 28.9491 47.9587 28.9065 48.0312C28.8198 48.1702 28.7494 48.2912 28.6608 48.3995C28.5004 48.609 28.4199 48.728 28.4199 48.728C28.3697 48.8018 28.3351 48.885 28.3182 48.9726C28.3012 49.0602 28.3023 49.1503 28.3214 49.2374ZM24.2248 41.2593C24.1697 41.1758 24.0987 41.104 24.0158 41.048C23.9329 40.992 23.8398 40.9529 23.7417 40.9329C23.6437 40.9129 23.5427 40.9124 23.4445 40.9314C23.3463 40.9505 23.2528 40.9886 23.1694 41.0438L22.989 41.1629L22.7691 41.3104C22.6832 41.3642 22.5779 41.4461 22.459 41.5372C22.3425 41.6285 22.2017 41.7299 22.0649 41.8455C21.9271 41.962 21.7741 42.0875 21.6149 42.2316C21.2975 42.521 20.9368 42.8658 20.5701 43.2977C20.3805 43.5082 20.1973 43.7472 20.0049 43.9997L19.7265 44.4028C19.629 44.5392 19.5453 44.69 19.4512 44.8393C19.0848 45.4427 18.7525 46.1498 18.4892 46.9553L18.3921 47.2613C18.3614 47.3648 18.3359 47.4709 18.3093 47.5778L18.2312 47.9022L18.1698 48.2359C18.1506 48.3484 18.1276 48.4618 18.112 48.5767L18.0706 48.9254L18.0505 49.1023L18.0456 49.1468L18.0431 49.1691C18.0456 49.332 18.0431 49.2248 18.0434 49.2658L18.0387 49.3393L18.0199 49.6355L18.001 49.9354C17.9997 49.9464 17.9998 49.9622 18.0005 49.98L18.0018 50.0306L18.0048 50.1323L18.013 50.3372C18.0261 50.6085 18.0362 50.9039 18.0732 51.1471L18.1222 51.5335L18.1483 51.7289C18.1588 51.7937 18.1739 51.8573 18.1866 51.9219L18.2688 52.3111C18.2988 52.4409 18.3207 52.5757 18.3613 52.7027C18.6329 53.7461 19.0722 54.7832 19.6498 55.7586C20.2255 56.7364 20.9336 57.6574 21.738 58.5035C23.349 60.1982 25.3282 61.6026 27.4941 62.7139C28.5789 63.2672 29.713 63.7464 30.8793 64.1615L31.3187 64.3128L31.539 64.3885L31.7611 64.4571L32.6538 64.7295L33.5579 64.9705C33.8604 65.0501 34.1658 65.1139 34.471 65.1859C34.776 65.2599 35.0833 65.3189 35.3918 65.3766C35.7001 65.4355 36.0089 65.4963 36.3196 65.5415C36.6301 65.5889 36.9409 65.6429 37.2529 65.6842L38.1914 65.7964C38.5047 65.8314 38.819 65.8538 39.1333 65.8827C39.2905 65.8952 39.4477 65.9124 39.6051 65.9209L40.0777 65.9451C40.3929 65.9591 40.7082 65.9812 41.0235 65.9832L42.0203 66L42.8893 65.9844L43.1065 65.9803C43.1409 65.9801 43.1815 65.9783 43.2234 65.9762L43.3465 65.9704L43.839 65.9468L44.3311 65.9221C44.4958 65.9146 44.6478 65.8974 44.8066 65.8848C45.1209 65.8559 45.4353 65.8334 45.7486 65.7984L46.6872 65.6865C46.9995 65.6471 47.3101 65.5917 47.6206 65.5447C47.9314 65.4995 48.2402 65.4385 48.5486 65.3797C48.857 65.3213 49.1649 65.2648 49.4697 65.1901C49.7749 65.118 50.0804 65.0541 50.3828 64.9746L51.2873 64.7345L52.1801 64.4619L52.4022 64.3932L52.6226 64.3175L53.062 64.166C54.2288 63.7519 55.3634 63.2728 56.4483 62.7194C58.6151 61.6086 60.5952 60.2041 62.2068 58.5088C63.0114 57.6621 63.72 56.7408 64.2961 55.7626C64.8736 54.7865 65.3132 53.7489 65.5849 52.7048C65.8589 51.6616 65.9656 50.6174 65.9257 49.6431L65.9086 49.2807L65.904 49.1911C65.9032 49.1578 65.9043 49.2341 65.9018 49.1108L65.8993 49.0926L65.8944 49.0564L65.8746 48.9118L65.8356 48.6255L65.8234 48.5429L65.8084 48.4496L65.7778 48.2644L65.7139 47.9014L65.6355 47.5769C65.6089 47.4701 65.5842 47.3638 65.5531 47.2602L65.4556 46.954C65.1915 46.1485 64.8593 45.4409 64.4923 44.8374C64.3981 44.6882 64.3142 44.5374 64.2166 44.4009L63.9378 43.998C63.7451 43.7456 63.5621 43.5063 63.3721 43.2961C63.0049 42.8644 62.6441 42.5196 62.3263 42.2305C62.167 42.0865 62.0137 41.9611 61.876 41.8446C61.7381 41.728 61.6037 41.6338 61.4888 41.544C61.2599 41.3637 61.0698 41.2456 60.9477 41.1597L60.7596 41.0337C60.5052 40.8641 60.161 40.8584 59.8975 41.0466C59.8165 41.1044 59.7477 41.1776 59.695 41.2621C59.6423 41.3465 59.6067 41.4405 59.5904 41.5387C59.574 41.6368 59.5771 41.7373 59.5996 41.8342C59.622 41.9312 59.6633 42.0228 59.7212 42.1038L59.7461 42.1386L59.8659 42.3063C59.9443 42.4168 60.0658 42.5758 60.2089 42.7916C60.3569 43.0035 60.5264 43.272 60.7177 43.5847C60.8067 43.7455 60.9108 43.9116 61.0043 44.0969L61.1529 44.3793C61.2046 44.4753 61.2474 44.5791 61.297 44.682C61.3991 44.8866 61.4797 45.1126 61.578 45.3388L61.705 45.6938C61.7512 45.8128 61.7806 45.94 61.8205 46.0651C61.9622 46.5719 62.0815 47.1146 62.1209 47.6887L62.136 47.9045C62.1399 47.9768 62.137 48.0502 62.1399 48.123L62.1451 48.3427L62.1332 48.5359L62.123 48.7394L62.1016 49.0276L62.0908 49.1731L62.0881 49.2097L62.0867 49.2279C62.0845 49.1169 62.0845 49.2053 62.0834 49.1842L62.0728 49.241L62.0315 49.4683C61.9181 50.0987 61.7211 50.7111 61.446 51.2895C60.8801 52.4964 59.9027 53.6667 58.6124 54.7036C57.322 55.7412 55.7295 56.6443 53.9594 57.3677C53.0509 57.7333 52.1233 58.0499 51.1808 58.3161C50.2046 58.5954 49.2143 58.8231 48.2141 58.9981C47.1908 59.1807 46.1599 59.318 45.1245 59.4094C44.8637 59.4337 44.6011 59.4462 44.3393 59.4656C44.2098 59.4734 44.0739 59.4862 43.9497 59.4911L43.5747 59.5072L43.1996 59.5243L43.1059 59.5287C43.0753 59.5303 43.0437 59.5317 43.0056 59.5318L42.7884 59.5345L41.9194 59.5461L41.1782 59.5359C40.914 59.5371 40.6514 59.5186 40.3882 59.509C40.125 59.4977 39.8618 59.4891 39.6002 59.4678C39.3384 59.4483 39.0758 59.4358 38.815 59.4115C37.7795 59.3204 36.7484 59.184 35.7248 59.0024C34.7105 58.8246 33.7174 58.597 32.7574 58.3209C31.8143 58.0556 30.8864 57.7393 29.9777 57.3734C28.2069 56.6504 26.6136 55.7472 25.3224 54.7089C24.0314 53.6712 23.0534 52.4997 22.4875 51.2915C22.4445 51.2176 22.4207 51.14 22.3869 51.0645L22.2908 50.8374C22.2752 50.7996 22.257 50.7622 22.2434 50.7241L22.2057 50.6096L22.1282 50.3815C22.0669 50.2197 22.0455 50.1041 22.0051 49.9728L21.9762 49.8763L21.9607 49.828L21.9528 49.8038C21.9491 49.794 21.9468 49.7838 21.946 49.7734L21.9025 49.476L21.8597 49.1823L21.849 49.1095C21.8489 49.1384 21.8455 49.0191 21.8482 49.1698L21.8468 49.1556L21.8441 49.1273L21.8329 49.014L21.8091 48.7882C21.8025 48.7132 21.8029 48.6388 21.799 48.5644L21.7897 48.3418L21.7952 48.122C21.7979 48.0491 21.7944 47.9756 21.7986 47.9033L21.814 47.6874C21.8544 47.1132 21.9734 46.5701 22.1158 46.0633C22.1559 45.9382 22.1854 45.811 22.2318 45.692L22.3591 45.337C22.4577 45.1109 22.5381 44.8847 22.6406 44.6803C22.6903 44.5774 22.7332 44.4737 22.785 44.3777L22.9339 44.0954C23.0273 43.9099 23.1319 43.7441 23.2209 43.5833C23.3137 43.4249 23.41 43.284 23.4919 43.1492C23.5743 43.0131 23.6537 42.9049 23.7232 42.7983C23.7931 42.6942 23.8529 42.6021 23.9196 42.5157L24.0772 42.303L24.2047 42.1284C24.3857 41.8789 24.4049 41.5317 24.2248 41.2593Z" fill="#F3ECE5"/>
</svg>
