<svg width="82" height="132" viewBox="0 0 82 132" fill="none" xmlns="http://www.w3.org/2000/svg">
<rect x="19" y="16" width="44" height="44" fill="white"/>
<path d="M41 5.05353e-08C30.1968 -0.000531812 19.8299 4.19717 12.1526 11.6808C4.47531 19.1644 0.108032 29.329 0 39.9654C0 67.6183 36.1313 128.677 37.6688 129.989C38.5971 130.77 39.7784 131.2 41 131.2C42.2216 131.2 43.4029 130.77 44.3312 129.989C46.125 128.677 82 67.6183 82 39.9654C81.892 29.329 77.5247 19.1644 69.8474 11.6808C62.1701 4.19717 51.8032 -0.000531812 41 5.05353e-08ZM41 55.5076C37.4523 55.5076 33.9843 54.4717 31.0345 52.5311C28.0847 50.5904 25.7856 47.832 24.4279 44.6048C23.0703 41.3776 22.715 37.8265 23.4072 34.4005C24.0993 30.9745 25.8077 27.8275 28.3163 25.3575C30.8249 22.8875 34.021 21.2054 37.5006 20.5239C40.9801 19.8425 44.5867 20.1922 47.8644 21.529C51.142 22.8657 53.9435 25.1294 55.9145 28.0339C57.8855 30.9383 58.9375 34.3529 58.9375 37.8461C58.9375 42.5302 57.0477 47.0225 53.6837 50.3346C50.3198 53.6468 45.7573 55.5076 41 55.5076Z" fill="#AC2200"/>
<path d="M45.1569 40.9882C45.1569 40.9882 45.199 40.9261 45.2826 40.8168C45.3289 40.7603 45.3656 40.6972 45.4108 40.6247C45.433 40.5869 45.4575 40.554 45.4835 40.508L45.5648 40.37C45.6946 40.1459 45.808 39.9127 45.9039 39.6721C46.0088 39.4019 46.1002 39.0985 46.1535 38.7726C46.2091 38.4338 46.2245 38.0897 46.1993 37.7473C46.1972 37.7032 46.1888 37.6584 46.1845 37.614L46.178 37.5472L46.1749 37.5138C46.1741 37.4766 46.1755 37.56 46.175 37.5491L46.1743 37.5434L46.1728 37.532L46.1698 37.509L46.1457 37.3244L46.1402 37.2779C46.1392 37.2709 46.1385 37.2606 46.1372 37.2563L46.1333 37.243L46.1184 37.1897L46.0907 37.0807L46.0547 36.949C46.0448 36.9046 46.0281 36.8618 46.0135 36.8184C45.9984 36.7752 45.9877 36.7308 45.9703 36.6882C45.9059 36.5162 45.8284 36.3483 45.7428 36.1828C45.6501 36.0208 45.5513 35.861 45.4376 35.7089C45.3209 35.5596 45.1967 35.4138 45.0582 35.2802C44.9174 35.1484 44.7672 35.0267 44.609 34.9163C44.5371 34.869 44.586 34.901 44.5686 34.8895L44.5633 34.8857L44.5527 34.8781L44.5314 34.8629L44.4889 34.8326L44.4039 34.7718L44.3614 34.7414L44.3507 34.7339L44.3358 34.7224L44.3058 34.6992L44.1861 34.6054L44.0682 34.51L44.039 34.4858L44.0138 34.463L43.9637 34.4172C43.8973 34.3558 43.8304 34.2951 43.7657 34.2324L43.5789 34.0375C43.5161 33.9734 43.4614 33.9016 43.4032 33.8338L43.3178 33.7305C43.2895 33.696 43.264 33.6592 43.2372 33.6237C43.1845 33.5518 43.1311 33.4808 43.0818 33.4072C42.884 33.1125 42.7193 32.8013 42.5828 32.484C42.5196 32.323 42.4563 32.1639 42.4094 32.0003C42.3856 31.9187 42.3571 31.8393 42.3392 31.7569L42.2828 31.5124C42.2193 31.1859 42.1788 30.8618 42.178 30.5457C42.1718 30.3879 42.1838 30.2323 42.1908 30.0798L42.1925 30.0512L42.1934 30.0369L42.1939 30.0298C42.1938 30.0349 42.1955 29.959 42.1952 29.9885L42.2017 29.9428L42.2147 29.8519L42.2277 29.7616C42.2324 29.7301 42.2352 29.7067 42.2429 29.6617C42.256 29.5813 42.2709 29.5019 42.2856 29.4236C42.2932 29.3847 42.3003 29.3447 42.3086 29.3076L42.336 29.2029C42.3541 29.1334 42.3728 29.0649 42.3919 28.9974C42.4121 28.93 42.4364 28.8643 42.4585 28.799C42.4822 28.7341 42.501 28.6688 42.5288 28.6068L42.6077 28.4223L42.647 28.3321L42.691 28.245L42.7791 28.0751C42.995 27.6776 43.2686 27.3143 43.5911 26.9971C43.8742 26.7189 44.1536 26.5214 44.3886 26.3772C44.5076 26.3065 44.6142 26.2469 44.7114 26.2025C44.8068 26.1559 44.8881 26.1188 44.9569 26.0937C45.0931 26.0416 45.1653 26.0172 45.1653 26.0172C45.2322 25.9946 45.3046 25.9943 45.3717 26.0162C45.4388 26.0381 45.497 26.0811 45.5377 26.1388C45.5784 26.1965 45.5993 26.2658 45.5974 26.3364C45.5955 26.407 45.5708 26.4751 45.527 26.5305L45.5067 26.5558C45.5067 26.5558 45.4636 26.6096 45.3836 26.7041C45.3418 26.7489 45.2977 26.8129 45.243 26.8818C45.1868 26.9489 45.1323 27.0358 45.0678 27.1254C44.9451 27.3114 44.8079 27.5382 44.686 27.806C44.5659 28.0746 44.4594 28.3817 44.3944 28.7167C44.3643 28.8849 44.3361 29.057 44.3276 29.236C44.3253 29.2806 44.3206 29.3248 44.3198 29.3699C44.3204 29.4154 44.3203 29.4607 44.3196 29.506L44.3186 29.5741C44.3196 29.5951 44.3221 29.6138 44.3236 29.6336C44.3268 29.6727 44.3301 29.7116 44.3315 29.7503C44.3316 29.7649 44.3349 29.8016 44.337 29.8303L44.3441 29.9213L44.3512 30.0128L44.3548 30.0588C44.3544 30.0921 44.3557 30.02 44.3559 30.0289L44.3567 30.0333L44.3583 30.042L44.3615 30.0594C44.3788 30.1522 44.3889 30.2459 44.4145 30.3377C44.4511 30.5233 44.5157 30.7043 44.5815 30.8832C44.6543 31.0613 44.7395 31.2341 44.8366 31.4002L44.915 31.5225C44.9393 31.5641 44.9689 31.6029 44.9979 31.6419L45.0399 31.7012C45.0532 31.7214 45.0678 31.7408 45.0839 31.7592L45.1755 31.8726C45.3032 32.0198 45.4412 32.1576 45.5885 32.2851L45.7029 32.3759L45.7313 32.3987L45.7453 32.4102L45.7574 32.418C45.7734 32.4284 45.7893 32.4388 45.8046 32.45L45.8502 32.4839L45.8614 32.4926L45.8672 32.497L45.8781 32.5041L45.9221 32.5323L46.0099 32.5888L46.0539 32.6171L46.0758 32.6312L46.0868 32.6383L46.0923 32.6418C46.0785 32.6327 46.131 32.6671 46.0627 32.6223C46.3717 32.8143 46.6624 33.0342 46.9311 33.2793C47.195 33.526 47.4353 33.7969 47.6487 34.0883C47.6998 34.1621 47.7509 34.2356 47.7999 34.3103C47.8252 34.3471 47.8487 34.385 47.8709 34.4237L47.9384 34.5389C48.0318 34.6903 48.105 34.8521 48.1815 35.01C48.2497 35.1721 48.3192 35.3322 48.3698 35.4981C48.3958 35.5807 48.4265 35.6612 48.4467 35.7448L48.509 35.9932C48.5292 36.0756 48.5418 36.1595 48.5578 36.2419C48.5725 36.3247 48.5871 36.4069 48.5946 36.4898L48.6206 36.736C48.623 36.7555 48.6242 36.7776 48.6251 36.8009L48.628 36.8688L48.6328 37.0038L48.6362 37.1377L48.6369 37.171C48.6371 37.1823 48.6362 37.1876 48.636 37.1962L48.6335 37.243L48.6214 37.4288L48.6199 37.4518L48.6191 37.4634L48.6187 37.4691C48.6185 37.4621 48.6195 37.5493 48.6187 37.5159L48.6126 37.5741L48.6002 37.6898C48.5902 37.7665 48.5833 37.8425 48.5698 37.9176C48.4711 38.5192 48.2695 39.0616 48.0165 39.5125C47.7906 39.9181 47.5023 40.2857 47.1624 40.6018C47.0891 40.6667 47.0148 40.7305 46.9398 40.7934C46.8672 40.853 46.7924 40.905 46.7229 40.9559C46.6548 41.0081 46.5819 41.0498 46.5152 41.0913C46.4476 41.1318 46.3859 41.1724 46.3222 41.2043C46.1948 41.2681 46.0869 41.3253 45.9781 41.368C45.8733 41.4109 45.7845 41.4489 45.7203 41.4623C45.5878 41.4996 45.5146 41.5157 45.5146 41.5157C45.4256 41.5352 45.3326 41.5186 45.2559 41.4695C45.1792 41.4204 45.1252 41.3429 45.1056 41.254C45.0958 41.2085 45.0953 41.1615 45.1042 41.1159C45.113 41.0702 45.1309 41.0268 45.1569 40.9882ZM39.2455 41.2543C39.2551 41.2983 39.2734 41.34 39.2992 41.377C39.3249 41.414 39.3578 41.4456 39.3957 41.4699C39.4337 41.4942 39.4761 41.5108 39.5205 41.5187C39.5649 41.5266 39.6104 41.5257 39.6544 41.516C39.6544 41.516 39.7277 41.5 39.8602 41.4627C39.9244 41.4492 40.0132 41.4113 40.118 41.3683C40.2267 41.3257 40.3347 41.2685 40.4621 41.2047C40.5259 41.1727 40.5875 41.1322 40.6551 41.0916C40.7217 41.0501 40.7946 41.0084 40.8627 40.9562C40.9322 40.9054 41.0071 40.8533 41.0796 40.7937C41.1547 40.7309 41.2289 40.667 41.3022 40.6021C41.6422 40.286 41.9304 39.9184 42.1563 39.5129C42.4093 39.0619 42.6109 38.5195 42.7097 37.9179C42.7231 37.8429 42.73 37.7668 42.74 37.6902L42.7525 37.5745L42.7586 37.5162C42.7594 37.5496 42.7584 37.4624 42.7586 37.4695L42.759 37.4637L42.7597 37.4522L42.7612 37.4291L42.7733 37.2433L42.7758 37.1965C42.7761 37.1879 42.777 37.1826 42.7767 37.1714L42.7761 37.1381L42.7726 37.0042L42.7678 36.8692L42.7649 36.8012C42.7643 36.7795 42.7629 36.7579 42.7605 36.7363L42.7345 36.4901C42.7269 36.4073 42.7123 36.3251 42.6977 36.2423C42.6817 36.1599 42.669 36.076 42.6489 35.9936L42.5866 35.7451C42.5664 35.6615 42.5357 35.581 42.5096 35.4985C42.4591 35.3325 42.3895 35.1724 42.3213 35.0103C42.2449 34.8525 42.1716 34.6906 42.0783 34.5393L42.0107 34.424C41.9887 34.3853 41.965 34.3474 41.9398 34.3106C41.8907 34.236 41.8396 34.1624 41.7886 34.0887C41.5751 33.7972 41.3349 33.5263 41.071 33.2796C41.0042 33.2184 40.9348 33.1597 40.8657 33.1008C40.7977 33.0406 40.7246 32.9864 40.6521 32.9316C40.5791 32.8774 40.5079 32.8207 40.4311 32.7718L40.3172 32.6966L40.26 32.6595L40.2313 32.641L40.217 32.6319L40.2098 32.6273C40.2231 32.636 40.17 32.6013 40.2377 32.6457L40.0619 32.5327L40.018 32.5044L40.007 32.4974L40.0013 32.4929L39.99 32.4842L39.9444 32.4504C39.9291 32.4392 39.9132 32.4288 39.8972 32.4183L39.8852 32.4105L39.8711 32.3991L39.8428 32.3762L39.7284 32.2854C39.581 32.158 39.443 32.0202 39.3154 31.873L39.2238 31.7596C39.2078 31.7412 39.1931 31.7219 39.1797 31.7016L39.1377 31.6423C39.1088 31.6033 39.0792 31.5645 39.0548 31.5229L38.9764 31.4005C38.8795 31.2343 38.7943 31.0616 38.7213 30.8835C38.6555 30.7046 38.5909 30.5237 38.5543 30.3381C38.5286 30.2462 38.5186 30.1526 38.5013 30.0598L38.4981 30.0423L38.4965 30.0336L38.4957 30.0293C38.4955 30.0204 38.4942 30.0925 38.4946 30.0592L38.491 30.0132L38.4839 29.9216L38.4768 29.8307C38.4747 29.8019 38.4714 29.7652 38.4713 29.7507C38.4699 29.712 38.4666 29.6731 38.4634 29.6339C38.462 29.6141 38.4594 29.5954 38.4585 29.5744L38.4594 29.5064C38.4601 29.4611 38.4602 29.4157 38.4596 29.3703C38.4605 29.3252 38.4651 29.2809 38.4674 29.2363C38.4759 29.0574 38.5041 28.8853 38.5342 28.7171C38.5992 28.3821 38.7058 28.0749 38.8258 27.8063C38.9477 27.5386 39.0848 27.3117 39.2076 27.1257C39.2721 27.0362 39.3266 26.9492 39.3829 26.8822C39.4375 26.8133 39.4816 26.7492 39.5234 26.7044C39.565 26.6555 39.6061 26.6061 39.6465 26.5562L39.6669 26.5308C39.7106 26.4754 39.7353 26.4073 39.7372 26.3368C39.7391 26.2662 39.7182 26.1969 39.6775 26.1392C39.6368 26.0814 39.5786 26.0384 39.5115 26.0165C39.4444 25.9946 39.372 25.995 39.3051 26.0176C39.3051 26.0176 39.2328 26.042 39.0968 26.094C39.028 26.1192 38.9467 26.1563 38.8512 26.2028C38.754 26.2473 38.6475 26.3068 38.5284 26.3776C38.2934 26.5217 38.014 26.7193 37.731 26.9975C37.4085 27.3147 37.1348 27.6779 36.9189 28.0754L36.8308 28.2453L36.7868 28.3325L36.7476 28.4227L36.6686 28.6071C36.6409 28.6692 36.622 28.7344 36.5983 28.7993C36.5763 28.8646 36.552 28.9304 36.5317 28.9977C36.5124 29.0661 36.4938 29.1346 36.4759 29.2033L36.4485 29.308C36.4402 29.3451 36.4331 29.3851 36.4255 29.4239C36.4107 29.5022 36.3959 29.5817 36.3828 29.6621C36.3751 29.707 36.3722 29.7305 36.3676 29.7619L36.3546 29.8522L36.3416 29.9431L36.335 29.9888C36.3353 29.9594 36.3337 30.0352 36.3337 30.0302L36.3333 30.0373L36.3324 30.0516L36.3307 30.0801C36.3237 30.2327 36.3116 30.3882 36.3178 30.546C36.3187 30.8622 36.3592 31.1862 36.4227 31.5127L36.4791 31.7572C36.4969 31.8397 36.5255 31.9191 36.5493 32.0007C36.5961 32.1642 36.6594 32.3233 36.7226 32.4844C36.8591 32.8016 37.0239 33.1129 37.2217 33.4075C37.2709 33.4812 37.3243 33.5522 37.3771 33.6241C37.4039 33.6596 37.4294 33.6964 37.4576 33.7309L37.5431 33.8341C37.6013 33.902 37.6559 33.9737 37.7188 34.0378L37.9056 34.2328C37.9703 34.2955 38.0372 34.3561 38.1037 34.4175L38.1537 34.4633L38.1789 34.4862L38.2081 34.5103L38.3261 34.6058L38.4457 34.6995L38.4757 34.7227L38.4907 34.7342L38.5013 34.7418L38.5438 34.7721L38.7138 34.8936C38.7851 34.9405 38.7357 34.9082 38.7525 34.9193L38.7562 34.9221L38.7635 34.9275L38.7781 34.9384L38.8072 34.96L38.8662 35.0019C38.9069 35.028 38.9425 35.0611 38.9805 35.0907C39.0582 35.1482 39.1251 35.2183 39.1981 35.2805C39.3366 35.4141 39.4608 35.5599 39.5775 35.7092C39.6912 35.8612 39.7901 36.0211 39.8827 36.1831C39.9683 36.3486 40.0459 36.5164 40.1102 36.6885C40.1276 36.7312 40.1384 36.7755 40.1534 36.8187C40.168 36.8621 40.1847 36.905 40.1946 36.9493L40.2306 37.081L40.2583 37.19L40.2732 37.2433L40.2771 37.2566C40.2784 37.2609 40.279 37.2712 40.2801 37.2782L40.2856 37.3247L40.3097 37.5093L40.3127 37.5323L40.3142 37.5437L40.3149 37.5494C40.3154 37.5603 40.314 37.4769 40.3148 37.5141L40.3179 37.5475L40.3244 37.6143C40.3288 37.6587 40.3372 37.7035 40.3392 37.7476C40.3644 38.09 40.349 38.4341 40.2934 38.7729C40.2402 39.0988 40.1487 39.4022 40.0439 39.6724C39.9479 39.913 39.8345 40.1462 39.7047 40.3703L39.6234 40.5083C39.5975 40.5543 39.573 40.5872 39.5507 40.625C39.5055 40.6975 39.4688 40.7606 39.4225 40.8171C39.3389 40.9264 39.2968 40.9885 39.2968 40.9885C39.2707 41.027 39.2526 41.0704 39.2438 41.1161C39.2349 41.1618 39.2355 41.2088 39.2455 41.2543ZM33.3851 41.2543C33.3947 41.2983 33.413 41.34 33.4388 41.377C33.4646 41.414 33.4974 41.4456 33.5354 41.4699C33.5733 41.4942 33.6157 41.5108 33.6601 41.5187C33.7045 41.5266 33.75 41.5257 33.794 41.516C33.794 41.516 33.8673 41.5 33.9998 41.4627C34.064 41.4492 34.1528 41.4113 34.2576 41.3683C34.3663 41.3257 34.4743 41.2685 34.6017 41.2047C34.6655 41.1727 34.7271 41.1322 34.7947 41.0916C34.8614 41.0501 34.9342 41.0084 35.0023 40.9562C35.0718 40.9054 35.1467 40.8533 35.2193 40.7937C35.2943 40.7309 35.3685 40.667 35.4419 40.6021C35.7818 40.286 36.07 39.9184 36.296 39.5129C36.549 39.0619 36.7505 38.5195 36.8493 37.9179C36.8628 37.8429 36.8696 37.7668 36.8796 37.6902L36.8921 37.5745L36.8982 37.5162C36.899 37.5496 36.898 37.4624 36.8982 37.4695L36.8986 37.4637L36.8994 37.4522L36.9009 37.4291L36.9129 37.2433L36.9154 37.1965C36.9157 37.1879 36.9166 37.1826 36.9163 37.1714L36.9157 37.1381L36.9122 37.0042L36.9074 36.8692L36.9045 36.8012C36.904 36.7795 36.9025 36.7579 36.9001 36.7363L36.8741 36.4901C36.8666 36.4073 36.8519 36.3251 36.8373 36.2423C36.8213 36.1599 36.8087 36.076 36.7885 35.9936L36.7262 35.7451C36.706 35.6615 36.6753 35.581 36.6493 35.4985C36.5987 35.3325 36.5291 35.1724 36.4609 35.0103C36.3845 34.8525 36.3112 34.6906 36.2179 34.5393L36.1503 34.424C36.1283 34.3853 36.1046 34.3474 36.0794 34.3106C36.0303 34.236 35.9793 34.1624 35.9282 34.0887C35.7148 33.7972 35.4745 33.5263 35.2106 33.2796C35.1438 33.2184 35.0744 33.1597 35.0053 33.1008C34.9373 33.0406 34.8642 32.9864 34.7917 32.9316C34.7187 32.8774 34.6475 32.8207 34.5707 32.7718L34.4568 32.6966L34.3996 32.6595L34.3709 32.641L34.3566 32.6319L34.3494 32.6273C34.3627 32.636 34.3096 32.6013 34.3773 32.6457L34.2016 32.5327L34.1576 32.5044L34.1466 32.4974L34.1409 32.4929L34.1297 32.4842L34.084 32.4504C34.0688 32.4392 34.0528 32.4288 34.0369 32.4183L34.0248 32.4105L34.0108 32.3991L33.9824 32.3762L33.868 32.2854C33.7207 32.158 33.5826 32.0202 33.455 31.873L33.3634 31.7596C33.3474 31.7412 33.3327 31.7219 33.3193 31.7016L33.2774 31.6423C33.2484 31.6033 33.2188 31.5645 33.1944 31.5229L33.116 31.4005C33.0191 31.2343 32.9339 31.0616 32.861 30.8835C32.7952 30.7046 32.7306 30.5237 32.6939 30.3381C32.6683 30.2462 32.6582 30.1526 32.641 30.0598L32.6378 30.0423L32.6361 30.0336L32.6353 30.0293C32.6351 30.0204 32.6339 30.0925 32.6342 30.0592L32.6306 30.0132L32.6235 29.9216L32.6164 29.8307C32.6143 29.8019 32.6111 29.7652 32.611 29.7507C32.6096 29.712 32.6063 29.6731 32.603 29.6339C32.6016 29.6141 32.599 29.5954 32.5981 29.5744L32.599 29.5064C32.5997 29.4611 32.5998 29.4157 32.5992 29.3703C32.6001 29.3252 32.6048 29.2809 32.6071 29.2363C32.6155 29.0574 32.6437 28.8853 32.6739 28.7171C32.7388 28.3821 32.8454 28.0749 32.9654 27.8063C33.0873 27.5386 33.2244 27.3117 33.3472 27.1257C33.4117 27.0362 33.4663 26.9492 33.5225 26.8822C33.5771 26.8133 33.6213 26.7492 33.663 26.7044C33.7046 26.6555 33.7457 26.6061 33.7861 26.5562L33.8065 26.5308C33.8502 26.4754 33.8749 26.4073 33.8768 26.3368C33.8788 26.2662 33.8578 26.1969 33.8171 26.1392C33.7765 26.0814 33.7182 26.0384 33.6511 26.0165C33.584 25.9946 33.5116 25.995 33.4447 26.0176C33.4447 26.0176 33.3725 26.042 33.2364 26.094C33.1676 26.1192 33.0863 26.1563 32.9908 26.2028C32.8937 26.2473 32.7871 26.3068 32.668 26.3776C32.433 26.5217 32.1536 26.7193 31.8706 26.9975C31.5481 27.3147 31.2744 27.6779 31.0585 28.0754L30.9704 28.2453L30.9265 28.3325L30.8872 28.4227L30.8082 28.6071C30.7805 28.6692 30.7617 28.7344 30.7379 28.7993C30.7159 28.8646 30.6916 28.9304 30.6714 28.9977C30.652 29.0661 30.6334 29.1346 30.6155 29.2033L30.5881 29.308C30.5798 29.3451 30.5727 29.3851 30.5651 29.4239C30.5503 29.5022 30.5355 29.5817 30.5224 29.6621C30.5147 29.707 30.5119 29.7305 30.5072 29.7619L30.4942 29.8522L30.4812 29.9431L30.4747 29.9888C30.475 29.9594 30.4733 30.0352 30.4734 30.0302L30.4729 30.0373L30.472 30.0516L30.4703 30.0801C30.4633 30.2327 30.4512 30.3882 30.4574 30.546C30.4583 30.8622 30.4988 31.1862 30.5623 31.5127L30.6187 31.7572C30.6366 31.8397 30.6651 31.9191 30.6889 32.0007C30.7358 32.1642 30.7991 32.3233 30.8623 32.4844C30.9987 32.8016 31.1635 33.1129 31.3613 33.4075C31.4105 33.4812 31.464 33.5522 31.5167 33.6241C31.5435 33.6596 31.569 33.6964 31.5972 33.7309L31.6827 33.8341C31.7409 33.902 31.7955 33.9737 31.8584 34.0378L32.0452 34.2328C32.1099 34.2955 32.1768 34.3561 32.2433 34.4175L32.2934 34.4633L32.3185 34.4862L32.3477 34.5103L32.4657 34.6058L32.5853 34.6995L32.6153 34.7227L32.6303 34.7342L32.6409 34.7418L32.6834 34.7721L32.8534 34.8936C32.9248 34.9405 32.8753 34.9082 32.8922 34.9193L32.8958 34.9221L32.9031 34.9275L32.9177 34.9384L32.9468 34.96L33.0058 35.0019C33.0465 35.028 33.0822 35.0611 33.1202 35.0907C33.1978 35.1482 33.2647 35.2183 33.3378 35.2805C33.4762 35.4141 33.6004 35.5599 33.7172 35.7092C33.8308 35.8612 33.9297 36.0211 34.0223 36.1831C34.1079 36.3486 34.1855 36.5164 34.2498 36.6885C34.2672 36.7312 34.278 36.7755 34.293 36.8187C34.3076 36.8621 34.3244 36.905 34.3342 36.9493L34.3702 37.081L34.3979 37.19L34.4128 37.2433L34.4167 37.2566C34.4181 37.2609 34.4187 37.2712 34.4197 37.2782L34.4252 37.3247L34.4493 37.5093L34.4523 37.5323L34.4538 37.5437L34.4546 37.5494C34.455 37.5603 34.4537 37.4769 34.4544 37.5141L34.4575 37.5475L34.464 37.6143C34.4684 37.6587 34.4768 37.7035 34.4788 37.7476C34.504 38.09 34.4886 38.4341 34.433 38.7729C34.3798 39.0988 34.2883 39.4022 34.1835 39.6724C34.0875 39.913 33.9741 40.1462 33.8443 40.3703L33.763 40.5083C33.7371 40.5543 33.7126 40.5872 33.6904 40.625C33.6451 40.6975 33.6084 40.7606 33.5622 40.8171C33.4785 40.9264 33.4365 40.9885 33.4365 40.9885C33.4103 41.027 33.3922 41.0704 33.3834 41.1161C33.3746 41.1618 33.3751 41.2088 33.3851 41.2543ZM31.2477 37.0918C31.219 37.0483 31.1819 37.0108 31.1387 36.9816C31.0954 36.9524 31.0468 36.932 30.9957 36.9215C30.9446 36.9111 30.8919 36.9108 30.8406 36.9207C30.7894 36.9307 30.7406 36.9506 30.6971 36.9794L30.603 37.0415L30.4882 37.1185C30.4434 37.1465 30.3884 37.1892 30.3264 37.2368C30.2656 37.2844 30.1922 37.3373 30.1208 37.3977C30.0489 37.4584 29.9691 37.5239 29.886 37.5991C29.7204 37.7501 29.5322 37.93 29.3409 38.1553C29.242 38.2652 29.1464 38.3899 29.046 38.5216L28.9008 38.7319C28.8499 38.8031 28.8062 38.8817 28.7572 38.9596C28.566 39.2745 28.3926 39.6434 28.2553 40.0636L28.2046 40.2233C28.1886 40.2773 28.1753 40.3327 28.1614 40.3884L28.1206 40.5577L28.0886 40.7318C28.0786 40.7905 28.0665 40.8496 28.0584 40.9096L28.0368 41.0915L28.0264 41.1838L28.0238 41.207L28.0225 41.2187C28.0238 41.3036 28.0225 41.2477 28.0226 41.2691L28.0202 41.3075L28.0104 41.462L28.0005 41.6185C27.9999 41.6242 27.9999 41.6325 28.0003 41.6417L28.001 41.6682L28.0025 41.7212L28.0068 41.8281C28.0136 41.9696 28.0189 42.1238 28.0382 42.2506L28.0638 42.4523L28.0774 42.5542C28.0829 42.588 28.0907 42.6212 28.0974 42.6549L28.1402 42.858C28.1559 42.9257 28.1673 42.996 28.1885 43.0623C28.3302 43.6067 28.5594 44.1478 28.8608 44.6567C29.1611 45.1668 29.5306 45.6473 29.9503 46.0888C30.7908 46.973 31.8234 47.7057 32.9535 48.2855C33.5194 48.5742 34.1111 48.8242 34.7196 49.0408L34.9489 49.1197L35.0638 49.1592L35.1797 49.195L35.6455 49.3371L36.1172 49.4629C36.275 49.5044 36.4343 49.5377 36.5935 49.5753C36.7527 49.6139 36.913 49.6447 37.074 49.6748C37.2348 49.7055 37.3959 49.7372 37.5581 49.7608C37.7201 49.7855 37.8822 49.8137 38.045 49.8353L38.5346 49.8938C38.6981 49.912 38.8621 49.9237 39.0261 49.9388C39.1081 49.9453 39.1901 49.9543 39.2722 49.9587L39.5188 49.9713C39.6832 49.9787 39.8478 49.9902 40.0123 49.9912L40.5323 50L40.9857 49.9919L41.0991 49.9897C41.117 49.9896 41.1382 49.9887 41.16 49.9876L41.2243 49.9846L41.4812 49.9722L41.7379 49.9594C41.8239 49.9554 41.9032 49.9465 41.9861 49.9399C42.1501 49.9248 42.314 49.9131 42.4775 49.8948L42.9672 49.8365C43.1302 49.8159 43.2922 49.787 43.4543 49.7625C43.6164 49.7389 43.7775 49.7071 43.9384 49.6764C44.0993 49.6459 44.2599 49.6164 44.419 49.5775C44.5782 49.5398 44.7376 49.5065 44.8954 49.465L45.3673 49.3397L45.8331 49.1975L45.949 49.1617L46.0639 49.1222L46.2932 49.0432C46.902 48.8271 47.4939 48.5771 48.06 48.2884C49.1905 47.7089 50.2236 46.9761 51.0644 46.0915C51.4842 45.6498 51.8539 45.1691 52.1545 44.6588C52.4558 44.1495 52.6851 43.6081 52.8269 43.0634C52.9698 42.5191 53.0255 41.9743 53.0047 41.466L52.9958 41.2769L52.9934 41.2301C52.993 41.2128 52.9935 41.2526 52.9923 41.1883L52.991 41.1788L52.9884 41.1599L52.9781 41.0844L52.9577 40.9351L52.9513 40.8919L52.9435 40.8433L52.9276 40.7467L52.8942 40.5573L52.8533 40.388C52.8394 40.3322 52.8266 40.2767 52.8103 40.2227L52.7595 40.063C52.6216 39.6427 52.4484 39.2735 52.2569 38.9587C52.2077 38.8808 52.164 38.8021 52.113 38.7309L51.9676 38.5207C51.867 38.389 51.7715 38.2642 51.6724 38.1545C51.4808 37.9292 51.2926 37.7494 51.1268 37.5985C51.0437 37.5234 50.9637 37.458 50.8918 37.3972C50.8199 37.3364 50.7498 37.2872 50.6898 37.2404C50.5704 37.1463 50.4712 37.0847 50.4075 37.0398L50.3094 36.9741C50.1766 36.8856 49.9971 36.8826 49.8596 36.9808C49.8173 37.011 49.7814 37.0492 49.7539 37.0933C49.7264 37.1373 49.7079 37.1863 49.6993 37.2376C49.6908 37.2888 49.6924 37.3412 49.7041 37.3918C49.7158 37.4424 49.7374 37.4902 49.7676 37.5324L49.7806 37.5506L49.8431 37.6381C49.884 37.6957 49.9474 37.7787 50.022 37.8913C50.0992 38.0018 50.1877 38.1419 50.2875 38.305C50.3339 38.389 50.3882 38.4756 50.437 38.5723L50.5145 38.7196C50.5415 38.7697 50.5639 38.8239 50.5897 38.8776C50.643 38.9843 50.6851 39.1022 50.7363 39.2203L50.8026 39.4055C50.8267 39.4676 50.842 39.5339 50.8628 39.5992C50.9368 39.8636 50.999 40.1467 51.0196 40.4463L51.0275 40.5588C51.0295 40.5966 51.028 40.6349 51.0295 40.6729L51.0322 40.7875L51.026 40.8883L51.0207 40.9945L51.0095 41.1448L51.0039 41.2208L51.0025 41.2398L51.0018 41.2494C51.0006 41.1914 51.0006 41.2375 51 41.2265L50.9945 41.2562L50.973 41.3748C50.9138 41.7037 50.811 42.0232 50.6675 42.325C50.3722 42.9546 49.8623 43.5652 49.1891 44.1062C48.5158 44.6476 47.6849 45.1188 46.7614 45.4962C46.2874 45.6869 45.8035 45.8521 45.3117 45.991C44.8024 46.1367 44.2857 46.2555 43.7639 46.3468C43.23 46.4421 42.6921 46.5137 42.1519 46.5614C42.0159 46.5741 41.8788 46.5806 41.7422 46.5908C41.6747 46.5948 41.6038 46.6015 41.539 46.604L41.3433 46.6124L41.1476 46.6214L41.0987 46.6237C41.0828 46.6245 41.0663 46.6253 41.0464 46.6253L40.9331 46.6267L40.4797 46.6327L40.093 46.6274C39.9552 46.6281 39.8181 46.6184 39.6808 46.6134C39.5435 46.6075 39.4062 46.603 39.2697 46.5919C39.1331 46.5817 38.9961 46.5752 38.86 46.5625C38.3197 46.515 37.7818 46.4438 37.2477 46.3491C36.7185 46.2563 36.2004 46.1376 35.6995 45.9935C35.2075 45.8551 34.7234 45.6901 34.2492 45.4992C33.3253 45.122 32.494 44.6507 31.8204 44.109C31.1468 43.5676 30.6366 42.9564 30.3413 42.326C30.3189 42.2874 30.3065 42.2469 30.2888 42.2076L30.2387 42.0891C30.2305 42.0694 30.2211 42.0499 30.2139 42.03L30.1943 41.9702L30.1539 41.8512C30.1219 41.7668 30.1107 41.7065 30.0896 41.638L30.0745 41.5876L30.0665 41.5624L30.0623 41.5498C30.0604 41.5447 30.0592 41.5394 30.0588 41.534L30.0361 41.3788L30.0137 41.2255L30.0082 41.1876C30.0081 41.2026 30.0063 41.1404 30.0077 41.219L30.007 41.2116L30.0056 41.1968L29.9998 41.1377L29.9874 41.0199C29.9839 40.9808 29.9841 40.942 29.9821 40.9032L29.9772 40.787L29.9801 40.6724C29.9815 40.6343 29.9797 40.5959 29.9819 40.5582L29.9899 40.4456C30.011 40.146 30.0731 39.8626 30.1474 39.5983C30.1683 39.533 30.1837 39.4666 30.2079 39.4045L30.2743 39.2193C30.3257 39.1013 30.3677 38.9833 30.4212 38.8767C30.4471 38.823 30.4695 38.7689 30.4965 38.7188L30.5742 38.5715C30.6229 38.4747 30.6775 38.3882 30.724 38.3043C30.7723 38.2217 30.8226 38.1482 30.8653 38.0778C30.9083 38.0068 30.9498 37.9504 30.986 37.8948C31.0225 37.8405 31.0537 37.7924 31.0885 37.7473L31.1707 37.6363L31.2372 37.5452C31.3317 37.4151 31.3417 37.2339 31.2477 37.0918Z" fill="#AC2200"/>
</svg>
