<svg width="82" height="132" viewBox="0 0 82 132" fill="none" xmlns="http://www.w3.org/2000/svg">
<path d="M41 5.05353e-08C30.1968 -0.000531812 19.8299 4.19717 12.1526 11.6808C4.47531 19.1644 0.108032 29.329 0 39.9654C0 67.6183 36.1313 128.677 37.6688 129.989C38.5971 130.77 39.7784 131.2 41 131.2C42.2216 131.2 43.4029 130.77 44.3312 129.989C46.125 128.677 82 67.6183 82 39.9654C81.892 29.329 77.5247 19.1644 69.8474 11.6808C62.1701 4.19717 51.8032 -0.000531812 41 5.05353e-08ZM41 55.5076C37.4523 55.5076 33.9843 54.4717 31.0345 52.5311C28.0847 50.5904 25.7856 47.832 24.4279 44.6048C23.0703 41.3776 22.715 37.8265 23.4072 34.4005C24.0993 30.9745 25.8077 27.8275 28.3163 25.3575C30.8249 22.8875 34.021 21.2054 37.5006 20.5239C40.9801 19.8425 44.5867 20.1922 47.8644 21.529C51.142 22.8657 53.9435 25.1294 55.9145 28.0339C57.8855 30.9383 58.9375 34.3529 58.9375 37.8461C58.9375 42.5302 57.0477 47.0225 53.6837 50.3346C50.3198 53.6468 45.7573 55.5076 41 55.5076Z" fill="#AC2200"/>
<path d="M45.2974 41.4902C45.2974 41.4902 45.3325 41.4384 45.4022 41.3474C45.4408 41.3003 45.4713 41.2477 45.509 41.1872C45.5275 41.1557 45.548 41.1283 45.5696 41.09L45.6373 40.975C45.7455 40.7883 45.84 40.5939 45.92 40.3935C46.0073 40.1682 46.0835 39.9155 46.1279 39.6438C46.1743 39.3615 46.1871 39.0747 46.1661 38.7894C46.1644 38.7527 46.1574 38.7153 46.1538 38.6783L46.1483 38.6227L46.1457 38.5949C46.1451 38.5639 46.1463 38.6333 46.1459 38.6243L46.1452 38.6195L46.144 38.61L46.1415 38.5909L46.1214 38.437L46.1168 38.3982C46.116 38.3924 46.1154 38.3838 46.1143 38.3802L46.1111 38.3691L46.0986 38.3248L46.0756 38.2339L46.0456 38.1242C46.0373 38.0872 46.0234 38.0515 46.0112 38.0154C45.9987 37.9793 45.9897 37.9423 45.9752 37.9069C45.9216 37.7635 45.857 37.6236 45.7857 37.4857C45.7085 37.3507 45.626 37.2175 45.5314 37.0908C45.4341 36.9663 45.3306 36.8449 45.2152 36.7335C45.0978 36.6236 44.9727 36.5223 44.8408 36.4302C44.7809 36.3909 44.8217 36.4175 44.8072 36.4079L44.8028 36.4047L44.7939 36.3984L44.7762 36.3858L44.7407 36.3605L44.6699 36.3098L44.6345 36.2845L44.6256 36.2782L44.6132 36.2686L44.5881 36.2493L44.4885 36.1712L44.3902 36.0916L44.3658 36.0715L44.3448 36.0525L44.3031 36.0143C44.2478 35.9631 44.192 35.9126 44.1381 35.8604L43.9824 35.6979C43.93 35.6445 43.8845 35.5847 43.836 35.5281L43.7648 35.4421C43.7413 35.4134 43.72 35.3827 43.6977 35.3531C43.6537 35.2932 43.6092 35.234 43.5682 35.1727C43.4034 34.9271 43.266 34.6677 43.1523 34.4034C43.0996 34.2692 43.0469 34.1366 43.0078 34.0003C42.988 33.9323 42.9642 33.8661 42.9493 33.7974L42.9023 33.5936C42.8495 33.3216 42.8157 33.0515 42.815 32.7881C42.8098 32.6566 42.8199 32.5269 42.8257 32.3998L42.8271 32.376L42.8279 32.3641L42.8282 32.3582C42.8282 32.3624 42.8296 32.2991 42.8293 32.3237L42.8348 32.2857L42.8456 32.2099L42.8564 32.1346C42.8603 32.1084 42.8626 32.0889 42.8691 32.0514C42.88 31.9844 42.8924 31.9183 42.9047 31.853C42.911 31.8206 42.9169 31.7873 42.9238 31.7564L42.9467 31.6691C42.9618 31.6112 42.9773 31.5541 42.9932 31.4978C43.0101 31.4417 43.0303 31.3869 43.0487 31.3325C43.0685 31.2784 43.0842 31.224 43.1073 31.1723L43.1731 31.0186L43.2058 30.9434L43.2425 30.8708L43.3159 30.7292C43.4958 30.398 43.7239 30.0953 43.9926 29.8309C44.2285 29.5991 44.4613 29.4345 44.6572 29.3144C44.7564 29.2554 44.8452 29.2058 44.9261 29.1687C45.0057 29.13 45.0735 29.099 45.1308 29.0781C45.2442 29.0347 45.3044 29.0143 45.3044 29.0143C45.3601 28.9955 45.4205 28.9952 45.4764 29.0135C45.5323 29.0317 45.5809 29.0676 45.6148 29.1157C45.6487 29.1638 45.6661 29.2215 45.6645 29.2803C45.6629 29.3392 45.6423 29.3959 45.6059 29.442L45.5889 29.4632C45.5889 29.4632 45.553 29.508 45.4863 29.5867C45.4515 29.6241 45.4147 29.6774 45.3692 29.7348C45.3224 29.7907 45.2769 29.8632 45.2231 29.9378C45.1209 30.0929 45.0066 30.2819 44.905 30.505C44.8049 30.7288 44.7161 30.9848 44.662 31.2639C44.6369 31.4041 44.6134 31.5475 44.6064 31.6966C44.6044 31.7338 44.6005 31.7707 44.5998 31.8083C44.6003 31.8461 44.6002 31.8839 44.5997 31.9217L44.5989 31.9784C44.5997 31.9959 44.6018 32.0115 44.603 32.028C44.6057 32.0606 44.6084 32.093 44.6096 32.1253C44.6097 32.1374 44.6124 32.168 44.6142 32.1919L44.6201 32.2677L44.626 32.344L44.629 32.3823C44.6287 32.4101 44.6297 32.35 44.6299 32.3574L44.6306 32.361L44.6319 32.3683L44.6346 32.3828C44.649 32.4602 44.6574 32.5382 44.6787 32.6148C44.7093 32.7694 44.7631 32.9202 44.8179 33.0693C44.8786 33.2177 44.9496 33.3617 45.0305 33.5002L45.0958 33.6021C45.1161 33.6368 45.1408 33.6691 45.1649 33.7016L45.1999 33.751C45.211 33.7678 45.2231 33.784 45.2366 33.7994L45.313 33.8938C45.4193 34.0165 45.5343 34.1314 45.6571 34.2375L45.7524 34.3132L45.7761 34.3323L45.7878 34.3418L45.7978 34.3483C45.8111 34.357 45.8244 34.3657 45.8371 34.375L45.8752 34.4032L45.8845 34.4105L45.8893 34.4142L45.8984 34.4201L45.9351 34.4436L46.0083 34.4907L46.0449 34.5142L46.0632 34.526L46.0723 34.5319L46.0769 34.5348C46.0654 34.5273 46.1092 34.5559 46.0522 34.5186C46.3097 34.6786 46.552 34.8618 46.7759 35.0661C46.9959 35.2717 47.1961 35.4974 47.3739 35.7403C47.4165 35.8017 47.4591 35.863 47.4999 35.9252C47.521 35.9559 47.5406 35.9875 47.559 36.0197L47.6153 36.1158C47.6931 36.2419 47.7542 36.3768 47.8179 36.5083C47.8747 36.6434 47.9327 36.7768 47.9748 36.9151C47.9965 36.9839 48.0221 37.051 48.0389 37.1206L48.0908 37.3277C48.1077 37.3964 48.1182 37.4663 48.1315 37.5349C48.1437 37.6039 48.1559 37.6724 48.1622 37.7415L48.1839 37.9466C48.1859 37.9629 48.1868 37.9814 48.1876 38.0007L48.19 38.0573L48.194 38.1699L48.1968 38.2814L48.1974 38.3092C48.1976 38.3185 48.1968 38.323 48.1966 38.3302L48.1945 38.3691L48.1845 38.524L48.1832 38.5432L48.1826 38.5528L48.1823 38.5576C48.1821 38.5518 48.1829 38.6244 48.1823 38.5966L48.1772 38.6451L48.1668 38.7415C48.1585 38.8054 48.1528 38.8688 48.1415 38.9313C48.0592 39.4326 47.8913 39.8846 47.6804 40.2605C47.4921 40.5984 47.252 40.9047 46.9686 41.1682C46.9075 41.2222 46.8457 41.2755 46.7831 41.3278C46.7227 41.3775 46.6603 41.4208 46.6024 41.4632C46.5456 41.5068 46.4849 41.5415 46.4293 41.5761C46.373 41.6099 46.3216 41.6437 46.2685 41.6703C46.1624 41.7234 46.0724 41.7711 45.9818 41.8066C45.8944 41.8424 45.8204 41.8741 45.7669 41.8853C45.6565 41.9163 45.5955 41.9297 45.5955 41.9297C45.5214 41.946 45.4438 41.9321 45.3799 41.8912C45.316 41.8503 45.271 41.7857 45.2547 41.7116C45.2465 41.6737 45.2461 41.6346 45.2535 41.5965C45.2608 41.5585 45.2758 41.5223 45.2974 41.4902ZM40.3712 41.7119C40.3793 41.7486 40.3945 41.7834 40.416 41.8142C40.4375 41.845 40.4648 41.8713 40.4964 41.8916C40.5281 41.9118 40.5634 41.9256 40.6004 41.9322C40.6374 41.9388 40.6753 41.9381 40.712 41.93C40.712 41.93 40.7731 41.9166 40.8835 41.8856C40.937 41.8743 41.011 41.8427 41.0983 41.8069C41.1889 41.7714 41.2789 41.7238 41.3851 41.6706C41.4382 41.6439 41.4895 41.6102 41.5459 41.5763C41.6015 41.5417 41.6622 41.507 41.7189 41.4635C41.7768 41.4211 41.8392 41.3778 41.8997 41.3281C41.9623 41.2757 42.0241 41.2225 42.0852 41.1684C42.3685 40.905 42.6086 40.5987 42.797 40.2607C43.0078 39.8849 43.1758 39.4329 43.2581 38.9316C43.2693 38.8691 43.275 38.8057 43.2834 38.7418L43.2938 38.6454L43.2988 38.5969C43.2995 38.6247 43.2987 38.552 43.2988 38.5579L43.2992 38.5531L43.2998 38.5435L43.301 38.5243L43.3111 38.3694L43.3132 38.3304C43.3134 38.3233 43.3141 38.3188 43.3139 38.3095L43.3134 38.2817L43.3105 38.1702L43.3065 38.0576L43.3041 38.001C43.3036 37.9829 43.3024 37.9649 43.3004 37.9469L43.2787 37.7418C43.2725 37.6727 43.2603 37.6042 43.2481 37.5352C43.2348 37.4666 43.2242 37.3967 43.2074 37.328L43.1555 37.1209C43.1387 37.0513 43.1131 36.9842 43.0914 36.9154C43.0492 36.7771 42.9913 36.6437 42.9344 36.5086C42.8707 36.3771 42.8097 36.2422 42.7319 36.1161L42.6756 36.02C42.6572 35.9877 42.6375 35.9562 42.6165 35.9255C42.5756 35.8633 42.533 35.802 42.4905 35.7406C42.3126 35.4977 42.1124 35.272 41.8925 35.0664C41.8368 35.0153 41.779 34.9664 41.7214 34.9173C41.6647 34.8671 41.6038 34.822 41.5434 34.7764C41.4826 34.7312 41.4233 34.6839 41.3593 34.6432L41.2644 34.5805L41.2166 34.5496L41.1928 34.5342L41.1808 34.5266L41.1748 34.5227C41.1859 34.53 41.1417 34.5011 41.1981 34.5381L41.0516 34.4439L41.015 34.4203L41.0059 34.4145L41.0011 34.4108L40.9917 34.4035L40.9537 34.3753C40.941 34.366 40.9277 34.3573 40.9144 34.3486L40.9043 34.3421L40.8926 34.3326L40.869 34.3135L40.7737 34.2378C40.6509 34.1317 40.5359 34.0168 40.4295 33.8941L40.3531 33.7997C40.3398 33.7844 40.3276 33.7682 40.3164 33.7513L40.2814 33.7019C40.2573 33.6694 40.2327 33.6371 40.2123 33.6024L40.147 33.5005C40.0662 33.3619 39.9952 33.218 39.9345 33.0696C39.8796 32.9205 39.8258 32.7697 39.7953 32.6151C39.7739 32.5385 39.7655 32.4605 39.7511 32.3831L39.7485 32.3686L39.7471 32.3613L39.7464 32.3577C39.7462 32.3503 39.7452 32.4104 39.7455 32.3826L39.7425 32.3443L39.7366 32.268L39.7307 32.1922C39.7289 32.1683 39.7262 32.1376 39.7261 32.1256C39.7249 32.0933 39.7222 32.0609 39.7195 32.0283C39.7183 32.0117 39.7162 31.9962 39.7154 31.9787L39.7162 31.922C39.7168 31.8842 39.7168 31.8464 39.7163 31.8086C39.717 31.771 39.721 31.7341 39.7229 31.6969C39.7299 31.5478 39.7534 31.4044 39.7785 31.2642C39.8327 30.9851 39.9215 30.7291 40.0215 30.5053C40.1231 30.2821 40.2374 30.0931 40.3396 29.9381C40.3934 29.8635 40.4389 29.791 40.4857 29.7351C40.5312 29.6777 40.568 29.6243 40.6028 29.587C40.6375 29.5463 40.6717 29.5051 40.7054 29.4635L40.7224 29.4423C40.7588 29.3962 40.7794 29.3394 40.781 29.2806C40.7826 29.2218 40.7652 29.1641 40.7313 29.116C40.6974 29.0679 40.6488 29.032 40.5929 29.0138C40.537 28.9955 40.4766 28.9958 40.4209 29.0146C40.4209 29.0146 40.3607 29.035 40.2473 29.0784C40.19 29.0993 40.1222 29.1302 40.0427 29.169C39.9617 29.206 39.8729 29.2557 39.7737 29.3147C39.5778 29.4348 39.345 29.5994 39.1091 29.8312C38.8404 30.0955 38.6123 30.3983 38.4324 30.7295L38.359 30.8711L38.3224 30.9437L38.2897 31.0189L38.2239 31.1726C38.2008 31.2243 38.185 31.2787 38.1653 31.3328C38.1469 31.3872 38.1266 31.442 38.1098 31.4981C38.0937 31.555 38.0782 31.6121 38.0632 31.6694L38.0404 31.7567C38.0335 31.7876 38.0276 31.8209 38.0213 31.8533C38.0089 31.9185 37.9965 31.9847 37.9856 32.0517C37.9792 32.0892 37.9769 32.1087 37.973 32.1349L37.9622 32.2102L37.9513 32.286L37.9459 32.324C37.9461 32.2995 37.9447 32.3627 37.9448 32.3585L37.9444 32.3644L37.9437 32.3763L37.9423 32.4001C37.9364 32.5272 37.9263 32.6569 37.9315 32.7884C37.9322 33.0518 37.966 33.3218 38.0189 33.5939L38.0659 33.7977C38.0808 33.8664 38.1046 33.9326 38.1244 34.0005C38.1634 34.1369 38.2162 34.2695 38.2689 34.4037C38.3826 34.668 38.5199 34.9274 38.6847 35.173C38.7258 35.2344 38.7703 35.2935 38.8142 35.3534C38.8366 35.383 38.8578 35.4137 38.8814 35.4424L38.9526 35.5284C39.0011 35.585 39.0466 35.6447 39.099 35.6982L39.2546 35.8607C39.3086 35.9129 39.3643 35.9634 39.4197 36.0146L39.4614 36.0528L39.4824 36.0718L39.5067 36.0919L39.6051 36.1715L39.7047 36.2496L39.7298 36.2689L39.7422 36.2785L39.7511 36.2848L39.7865 36.3101L39.9282 36.4113C39.9876 36.4504 39.9464 36.4235 39.9605 36.4328L39.9635 36.4351L39.9696 36.4396L39.9817 36.4487L40.006 36.4666L40.0552 36.5016C40.0891 36.5233 40.1188 36.5509 40.1504 36.5756C40.2152 36.6235 40.2709 36.682 40.3318 36.7338C40.4472 36.8451 40.5507 36.9665 40.648 37.091C40.7427 37.2177 40.8251 37.3509 40.9023 37.4859C40.9736 37.6238 41.0382 37.7637 41.0918 37.9071C41.1063 37.9426 41.1153 37.9796 41.1278 38.0156C41.14 38.0517 41.154 38.0875 41.1621 38.1244L41.1922 38.2342L41.2152 38.325L41.2277 38.3694L41.2309 38.3805C41.232 38.3841 41.2325 38.3926 41.2334 38.3985L41.238 38.4372L41.2581 38.5911L41.2606 38.6102L41.2618 38.6197L41.2624 38.6245C41.2628 38.6336 41.2617 38.5641 41.2623 38.5951L41.2649 38.6229L41.2704 38.6786C41.274 38.7156 41.281 38.7529 41.2827 38.7896C41.3037 39.075 41.2909 39.3618 41.2445 39.6441C41.2001 39.9157 41.1239 40.1685 41.0366 40.3937C40.9566 40.5941 40.8621 40.7885 40.7539 40.9752L40.6862 41.0903C40.6646 41.1285 40.6441 41.156 40.6256 41.1875C40.5879 41.2479 40.5573 41.3005 40.5188 41.3476C40.4491 41.4387 40.414 41.4904 40.414 41.4904C40.3922 41.5225 40.3772 41.5587 40.3698 41.5968C40.3625 41.6348 40.3629 41.674 40.3712 41.7119ZM35.4876 41.7119C35.4956 41.7486 35.5108 41.7834 35.5323 41.8142C35.5538 41.845 35.5811 41.8713 35.6128 41.8916C35.6444 41.9118 35.6798 41.9256 35.7168 41.9322C35.7537 41.9388 35.7917 41.9381 35.8284 41.93C35.8284 41.93 35.8894 41.9166 35.9998 41.8856C36.0533 41.8743 36.1273 41.8427 36.2147 41.8069C36.3053 41.7714 36.3953 41.7238 36.5014 41.6706C36.5546 41.6439 36.6059 41.6102 36.6622 41.5763C36.7178 41.5417 36.7785 41.507 36.8353 41.4635C36.8932 41.4211 36.9556 41.3778 37.016 41.3281C37.0786 41.2757 37.1404 41.2225 37.2015 41.1684C37.4848 40.905 37.725 40.5987 37.9133 40.2607C38.1241 39.8849 38.2921 39.4329 38.3744 38.9316C38.3856 38.8691 38.3913 38.8057 38.3997 38.7418L38.4101 38.6454L38.4152 38.5969C38.4158 38.6247 38.415 38.552 38.4152 38.5579L38.4155 38.5531L38.4161 38.5435L38.4174 38.5243L38.4274 38.3694L38.4295 38.3304C38.4297 38.3233 38.4305 38.3188 38.4303 38.3095L38.4297 38.2817L38.4269 38.1702L38.4229 38.0576L38.4205 38.001C38.42 37.9829 38.4187 37.9649 38.4168 37.9469L38.3951 37.7418C38.3888 37.6727 38.3766 37.6042 38.3644 37.5352C38.3511 37.4666 38.3405 37.3967 38.3237 37.328L38.2718 37.1209C38.255 37.0513 38.2294 36.9842 38.2077 36.9154C38.1656 36.7771 38.1076 36.6437 38.0508 36.5086C37.9871 36.3771 37.926 36.2422 37.8482 36.1161L37.7919 36.02C37.7736 35.9877 37.7538 35.9562 37.7328 35.9255C37.6919 35.8633 37.6494 35.802 37.6068 35.7406C37.429 35.4977 37.2288 35.272 37.0088 35.0664C36.9531 35.0153 36.8954 34.9664 36.8378 34.9173C36.7811 34.8671 36.7202 34.822 36.6597 34.7764C36.5989 34.7312 36.5396 34.6839 36.4756 34.6432L36.3807 34.5805L36.333 34.5496L36.3091 34.5342L36.2972 34.5266L36.2912 34.5227C36.3022 34.53 36.258 34.5011 36.3144 34.5381L36.168 34.4439L36.1314 34.4203L36.1222 34.4145L36.1174 34.4108L36.1081 34.4035L36.07 34.3753C36.0573 34.366 36.044 34.3573 36.0307 34.3486L36.0207 34.3421L36.009 34.3326L35.9853 34.3135L35.89 34.2378C35.7672 34.1317 35.6522 34.0168 35.5459 33.8941L35.4695 33.7997C35.4562 33.7844 35.4439 33.7682 35.4328 33.7513L35.3978 33.7019C35.3737 33.6694 35.349 33.6371 35.3287 33.6024L35.2633 33.5005C35.1826 33.3619 35.1116 33.218 35.0508 33.0696C34.996 32.9205 34.9421 32.7697 34.9116 32.6151C34.8902 32.5385 34.8818 32.4605 34.8675 32.3831L34.8648 32.3686L34.8634 32.3613L34.8628 32.3577C34.8626 32.3503 34.8616 32.4104 34.8618 32.3826L34.8589 32.3443L34.8529 32.268L34.847 32.1922C34.8452 32.1683 34.8425 32.1376 34.8425 32.1256C34.8413 32.0933 34.8386 32.0609 34.8358 32.0283C34.8346 32.0117 34.8325 31.9962 34.8317 31.9787L34.8325 31.922C34.8331 31.8842 34.8332 31.8464 34.8327 31.8086C34.8334 31.771 34.8373 31.7341 34.8392 31.6969C34.8463 31.5478 34.8698 31.4044 34.8949 31.2642C34.949 30.9851 35.0378 30.7291 35.1378 30.5053C35.2394 30.2821 35.3537 30.0931 35.456 29.9381C35.5098 29.8635 35.5552 29.791 35.6021 29.7351C35.6476 29.6777 35.6844 29.6243 35.7192 29.587C35.7539 29.5463 35.7881 29.5051 35.8218 29.4635L35.8387 29.4423C35.8752 29.3962 35.8958 29.3394 35.8974 29.2806C35.899 29.2218 35.8815 29.1641 35.8476 29.116C35.8137 29.0679 35.7652 29.032 35.7093 29.0138C35.6533 28.9955 35.593 28.9958 35.5372 29.0146C35.5372 29.0146 35.477 29.035 35.3636 29.0784C35.3063 29.0993 35.2386 29.1302 35.159 29.169C35.078 29.206 34.9892 29.2557 34.89 29.3147C34.6942 29.4348 34.4614 29.5994 34.2255 29.8312C33.9567 30.0955 33.7287 30.3983 33.5488 30.7295L33.4754 30.8711L33.4387 30.9437L33.406 31.0189L33.3402 31.1726C33.3171 31.2243 33.3014 31.2787 33.2816 31.3328C33.2632 31.3872 33.243 31.442 33.2261 31.4981C33.21 31.555 33.1945 31.6121 33.1796 31.6694L33.1567 31.7567C33.1498 31.7876 33.1439 31.8209 33.1376 31.8533C33.1253 31.9185 33.1129 31.9847 33.102 32.0517C33.0956 32.0892 33.0932 32.1087 33.0893 32.1349L33.0785 32.2102L33.0677 32.286L33.0622 32.324C33.0625 32.2995 33.0611 32.3627 33.0611 32.3585L33.0608 32.3644L33.06 32.3763L33.0586 32.4001C33.0528 32.5272 33.0427 32.6569 33.0479 32.7884C33.0486 33.0518 33.0824 33.3218 33.1352 33.5939L33.1822 33.7977C33.1971 33.8664 33.2209 33.9326 33.2407 34.0005C33.2798 34.1369 33.3325 34.2695 33.3852 34.4037C33.4989 34.668 33.6363 34.9274 33.8011 35.173C33.8421 35.2344 33.8866 35.2935 33.9306 35.3534C33.9529 35.383 33.9742 35.4137 33.9977 35.4424L34.0689 35.5284C34.1174 35.585 34.1629 35.6447 34.2153 35.6982L34.371 35.8607C34.4249 35.9129 34.4807 35.9634 34.5361 36.0146L34.5778 36.0528L34.5988 36.0718L34.6231 36.0919L34.7214 36.1715L34.8211 36.2496L34.8461 36.2689L34.8586 36.2785L34.8674 36.2848L34.9028 36.3101L35.0445 36.4113C35.104 36.4504 35.0627 36.4235 35.0768 36.4328L35.0798 36.4351L35.0859 36.4396L35.0981 36.4487L35.1224 36.4666L35.1715 36.5016C35.2054 36.5233 35.2351 36.5509 35.2668 36.5756C35.3315 36.6235 35.3872 36.682 35.4481 36.7338C35.5635 36.8451 35.667 36.9665 35.7643 37.091C35.859 37.2177 35.9414 37.3509 36.0186 37.4859C36.09 37.6238 36.1546 37.7637 36.2082 37.9071C36.2227 37.9426 36.2317 37.9796 36.2442 38.0156C36.2563 38.0517 36.2703 38.0875 36.2785 38.1244L36.3085 38.2342L36.3316 38.325L36.344 38.3694L36.3473 38.3805C36.3484 38.3841 36.3489 38.3926 36.3498 38.3985L36.3543 38.4372L36.3744 38.5911L36.3769 38.6102L36.3782 38.6197L36.3788 38.6245C36.3792 38.6336 36.378 38.5641 36.3787 38.5951L36.3812 38.6229L36.3867 38.6786C36.3903 38.7156 36.3973 38.7529 36.399 38.7896C36.42 39.075 36.4072 39.3618 36.3608 39.6441C36.3165 39.9157 36.2403 40.1685 36.1529 40.3937C36.0729 40.5941 35.9784 40.7885 35.8703 40.9752L35.8025 41.0903C35.7809 41.1285 35.7605 41.156 35.742 41.1875C35.7043 41.2479 35.6737 41.3005 35.6351 41.3476C35.5654 41.4387 35.5304 41.4904 35.5304 41.4904C35.5086 41.5225 35.4935 41.5587 35.4862 41.5968C35.4788 41.6348 35.4793 41.674 35.4876 41.7119ZM33.7065 38.2432C33.6825 38.2069 33.6516 38.1757 33.6155 38.1513C33.5795 38.127 33.539 38.11 33.4964 38.1013C33.4538 38.0926 33.4099 38.0923 33.3672 38.1006C33.3245 38.1089 33.2838 38.1255 33.2476 38.1495L33.1691 38.2013L33.0735 38.2654C33.0362 38.2888 32.9904 38.3244 32.9387 38.364C32.888 38.4037 32.8268 38.4478 32.7673 38.4981C32.7074 38.5487 32.6409 38.6033 32.5717 38.6659C32.4337 38.7917 32.2769 38.9417 32.1175 39.1294C32.035 39.221 31.9553 39.3249 31.8717 39.4347L31.7507 39.6099C31.7083 39.6692 31.6719 39.7348 31.631 39.7997C31.4716 40.0621 31.3272 40.3695 31.2127 40.7197L31.1705 40.8527C31.1571 40.8977 31.1461 40.9439 31.1345 40.9903L31.1005 41.1314L31.0738 41.2765C31.0655 41.3254 31.0555 41.3747 31.0487 41.4247L31.0307 41.5763L31.022 41.6532L31.0198 41.6725L31.0187 41.6822C31.0198 41.753 31.0187 41.7064 31.0188 41.7243L31.0168 41.7562L31.0087 41.885L31.0004 42.0154C30.9999 42.0202 30.9999 42.0271 31.0002 42.0348L31.0008 42.0568L31.0021 42.101L31.0057 42.1901C31.0114 42.308 31.0157 42.4365 31.0318 42.5422L31.0531 42.7102L31.0645 42.7952C31.0691 42.8233 31.0756 42.851 31.0811 42.8791L31.1169 43.0483C31.1299 43.1047 31.1395 43.1633 31.1571 43.2186C31.2752 43.6722 31.4662 44.1231 31.7173 44.5472C31.9676 44.9723 32.2755 45.3728 32.6252 45.7407C33.3256 46.4775 34.1862 47.0881 35.1279 47.5712C35.5995 47.8118 36.0926 48.0202 36.5997 48.2006L36.7907 48.2664L36.8865 48.2994L36.9831 48.3292L37.3712 48.4476L37.7643 48.5524C37.8958 48.587 38.0286 48.6147 38.1613 48.6461C38.2939 48.6782 38.4275 48.7039 38.5617 48.729C38.6957 48.7546 38.8299 48.781 38.9651 48.8006C39.1001 48.8213 39.2352 48.8447 39.3708 48.8627L39.7789 48.9115C39.9151 48.9267 40.0517 48.9364 40.1884 48.949C40.2567 48.9544 40.3251 48.9619 40.3935 48.9656L40.599 48.9761C40.736 48.9822 40.8731 48.9918 41.0102 48.9927L41.4436 49L41.8214 48.9932L41.9159 48.9914C41.9308 48.9913 41.9485 48.9906 41.9667 48.9896L42.0202 48.9871L42.2343 48.9769L42.4483 48.9661C42.5199 48.9629 42.586 48.9554 42.655 48.9499C42.7917 48.9373 42.9284 48.9276 43.0646 48.9123L43.4727 48.8637C43.6085 48.8466 43.7435 48.8225 43.8785 48.8021C44.0137 48.7824 44.1479 48.7559 44.282 48.7303C44.4161 48.7049 44.5499 48.6803 44.6825 48.6479C44.8152 48.6165 44.948 48.5887 45.0795 48.5542L45.4727 48.4498L45.8609 48.3313L45.9575 48.3014L46.0533 48.2685L46.2444 48.2026C46.7516 48.0226 47.245 47.8143 47.7167 47.5737C48.6587 47.0907 49.5197 46.48 50.2204 45.743C50.5702 45.3748 50.8782 44.9742 51.1287 44.549C51.3798 44.1246 51.5709 43.6734 51.6891 43.2195C51.8082 42.7659 51.8546 42.3119 51.8373 41.8883L51.8298 41.7307L51.8278 41.6918C51.8275 41.6773 51.828 41.7105 51.8269 41.6569L51.8258 41.649L51.8236 41.6332L51.8151 41.5704L51.7981 41.4459L51.7928 41.4099L51.7863 41.3694L51.773 41.2889L51.7452 41.131L51.7111 40.99C51.6995 40.9435 51.6888 40.8973 51.6752 40.8523L51.6329 40.7191C51.518 40.3689 51.3736 40.0613 51.214 39.7989C51.1731 39.734 51.1366 39.6684 51.0942 39.6091L50.973 39.4339C50.8892 39.3242 50.8096 39.2201 50.727 39.1287C50.5674 38.941 50.4105 38.7911 50.2723 38.6654C50.2031 38.6028 50.1364 38.5483 50.0765 38.4976C50.0166 38.447 49.9581 38.406 49.9082 38.367C49.8086 38.2886 49.726 38.2372 49.6729 38.1999L49.5911 38.1451C49.4805 38.0714 49.3309 38.0689 49.2163 38.1507C49.1811 38.1758 49.1512 38.2077 49.1283 38.2444C49.1053 38.2811 49.0899 38.3219 49.0828 38.3646C49.0756 38.4073 49.077 38.451 49.0868 38.4931C49.0965 38.5353 49.1145 38.5751 49.1396 38.6103L49.1505 38.6255L49.2025 38.6984C49.2367 38.7464 49.2895 38.8156 49.3517 38.9094C49.416 39.0015 49.4897 39.1182 49.5729 39.2542C49.6116 39.3241 49.6569 39.3964 49.6975 39.4769L49.7621 39.5997C49.7846 39.6414 49.8032 39.6866 49.8248 39.7313C49.8692 39.8203 49.9042 39.9185 49.947 40.0169L50.0022 40.1712C50.0223 40.223 50.035 40.2783 50.0524 40.3327C50.114 40.553 50.1659 40.789 50.183 41.0386L50.1896 41.1324C50.1912 41.1638 50.19 41.1957 50.1912 41.2274L50.1935 41.3229L50.1883 41.4069L50.1839 41.4954L50.1746 41.6207L50.1699 41.684L50.1687 41.6999L50.1682 41.7078C50.1672 41.6595 50.1672 41.6979 50.1667 41.6888L50.1621 41.7135L50.1441 41.8123C50.0948 42.0864 50.0092 42.3527 49.8895 42.6041C49.6435 43.1289 49.2186 43.6377 48.6576 44.0885C48.0965 44.5396 47.4041 44.9323 46.6345 45.2468C46.2395 45.4058 45.8362 45.5434 45.4264 45.6592C45.002 45.7806 44.5714 45.8796 44.1366 45.9557C43.6916 46.0351 43.2434 46.0948 42.7932 46.1345C42.6799 46.1451 42.5657 46.1505 42.4519 46.159C42.3956 46.1623 42.3365 46.1679 42.2825 46.17L42.1194 46.177L41.9564 46.1845L41.9156 46.1864C41.9023 46.1871 41.8885 46.1877 41.872 46.1878L41.7776 46.1889L41.3997 46.194L41.0775 46.1895C40.9626 46.19 40.8484 46.182 40.734 46.1778C40.6196 46.1729 40.5051 46.1692 40.3914 46.1599C40.2776 46.1514 40.1634 46.146 40.05 46.1354C39.5998 46.0958 39.1515 46.0365 38.7064 45.9576C38.2655 45.8803 37.8336 45.7813 37.4162 45.6613C37.0062 45.5459 36.6028 45.4084 36.2077 45.2493C35.4378 44.935 34.745 44.5423 34.1837 44.0908C33.6223 43.6396 33.1971 43.1303 32.9511 42.605C32.9324 42.5729 32.9221 42.5391 32.9073 42.5063L32.8656 42.4076C32.8588 42.3911 32.8509 42.3749 32.8449 42.3583L32.8285 42.3085L32.7949 42.2093C32.7682 42.139 32.7589 42.0887 32.7413 42.0317L32.7288 41.9897L32.722 41.9687L32.7186 41.9582C32.717 41.9539 32.716 41.9495 32.7156 41.945L32.6968 41.8156L32.6781 41.688L32.6735 41.6563C32.6735 41.6689 32.672 41.617 32.6731 41.6825L32.6725 41.6764L32.6713 41.664L32.6665 41.6148L32.6561 41.5166C32.6533 41.484 32.6534 41.4517 32.6517 41.4193L32.6477 41.3225L32.6501 41.227C32.6513 41.1953 32.6497 41.1633 32.6516 41.1319L32.6583 41.038C32.6758 40.7883 32.7276 40.5522 32.7895 40.3319C32.8069 40.2775 32.8197 40.2222 32.8399 40.1704L32.8953 40.0161C32.9381 39.9178 32.9731 39.8194 33.0177 39.7306C33.0393 39.6858 33.0579 39.6407 33.0804 39.599L33.1452 39.4763C33.1858 39.3956 33.2312 39.3235 33.27 39.2536C33.3103 39.1847 33.3522 39.1235 33.3878 39.0649C33.4236 39.0057 33.4581 38.9587 33.4883 38.9123C33.5188 38.8671 33.5448 38.827 33.5737 38.7894L33.6423 38.697L33.6977 38.621C33.7764 38.5126 33.7847 38.3616 33.7065 38.2432Z" fill="#AC2200"/>
</svg>
