<svg width="128" height="157" viewBox="0 0 128 157" fill="none" xmlns="http://www.w3.org/2000/svg">
<path fill-rule="evenodd" clip-rule="evenodd" d="M81.0268 156.429L79.4196 154.554H78.3482L77.8125 154.018L74.5982 154.821L72.4554 152.946L71.3839 153.482L71.25 152.813L71.7857 152.277L71.3839 150.804L70.3125 151.607L67.7679 151.741L67.2321 150.67L68.3036 149.866L67.2321 149.33L66.9643 147.991L67.5 146.92L68.3036 146.384V143.705L68.8393 142.098L68.4375 140.625L64.9554 141.161L63.0804 140.625L62.1429 141.83L62.4107 142.634L62.0089 143.036L61.2054 142.5L60.2679 143.17L60 143.705L61.0714 144.777V146.652L59.3304 146.786L58.6607 147.455V151.205L56.9196 152.946H56.3839L55.5804 151.875H54.2411L52.5 150.134L52.7679 149.33L53.5714 148.795L53.4375 147.321L52.3661 148.125H50.2232V146.25L48.3482 145.982L45.1339 144.107L44.1964 145.58L43.6607 147.723L43.9286 148.795L42.7232 150.268L42.4554 150L41.1161 151.071H39.7768L36.9643 147.455V146.116L35.8929 144.509V142.366L36.8304 141.161L40.7143 138.616L40.1786 135.67L38.8393 132.455V131.384L39.6429 130.312L39.1071 125.759L39.9107 123.884L39.6429 121.473L38.8393 120.402V116.116L39.375 114.509L39.6429 110.223L41.5179 107.009L41.7857 105.134L42.8571 102.455L41.7857 98.7054L40.7143 96.8304L40.4464 93.6161L39.6429 91.2054L38.3036 88.5268L36.1607 85.8482L35.0893 83.1696L32.6786 80.2232L31.3393 75.9375L29.3304 73.6607L25.5804 71.5179L24.375 70.3125L20.625 62.8125L20.0893 58.5268L19.1518 57.5893L17.1429 56.6518L16.875 55.3125L17.4107 53.9732V51.5625L13.3929 46.4732L14.1964 41.6518L13.125 36.2946V33.8839L14.4643 31.7411L14.1964 30.4018L13.6607 29.0625L9.64286 25.5804L9.10714 23.9732L5.08929 19.6875L4.01786 16.7411L2.14286 14.3304V12.4554L1.33929 10.8482V9.24107L0 6.29464V3.08036L3.61607 0L8.57143 4.95536L10.1786 9.50893L10.7143 13.7946L12.5893 17.5446L16.3393 21.2946L20.3571 26.6518L23.4375 29.7321L26.6518 31.0714L29.1964 33.3482L34.0179 39.7768L35.0893 40.5804L35.8929 42.7232L36.4286 46.2054L38.3036 50.2232L42.1875 54.1071L44.3304 54.9107L47.5446 57.0536L49.9554 56.7857L51.2946 57.3214H53.9732L55.7143 58.5268L56.5179 60.9375L54.9107 63.6161L54.1071 65.4911V66.5625L55.8482 69.375L60.6696 71.7857L65.2232 75.8036L70.3125 78.75L73.7946 82.2321L75.4018 83.0357H83.4375L84.5089 83.5714L88.2589 87.0536L89.8661 87.8571L92.2768 90L93.8839 90.8036L96.2946 91.0714L98.1696 91.875L101.518 95.7589V96.5625L102.723 97.2321L104.33 96.6964L106.741 94.2857H109.42L111.563 94.5536L115.58 97.5L119.598 98.8393L121.339 100.58L123.214 104.063L126.161 107.545L127.5 110.223L127.098 111.161L124.688 111.696L123.884 112.768L123.08 113.036L121.741 112.5L119.866 110.893L119.33 111.696L118.527 111.964L117.455 110.089H116.116L115.714 111.295L116.25 111.563V112.634L115.446 115.58L112.634 115.446L111.964 116.116L112.232 117.723L110.893 118.527L111.027 119.196L109.955 119.732L108.482 118.527V117.455L108.08 117.054H103.259L100.58 115.446L99.2411 115.179H96.8304L96.5625 115.714L94.9554 116.25L92.6786 118.795L90.8036 122.277L89.4643 123.348L88.6607 125.759V128.438L88.125 130.58L87.0536 131.652L86.25 133.795L85.1786 134.598L84.6429 135.67L84.5089 136.875L85.3125 137.679H87.1875L87.3214 138.348L84.5089 141.161L83.5714 141.563L83.0357 143.438L85.3125 144.107L85.8482 144.911L87.4554 144.375L87.5893 145.312L86.3839 145.982L85.3125 147.321L84.7768 146.518L82.7679 146.92L84.375 147.991V148.795L80.625 152.277L80.8929 154.955H82.5V155.491L81.0268 156.429ZM96.9643 109.688L99.375 108.08L98.4375 106.607H95.2232L93.3482 104.732L91.7411 103.929H90.9375L90.1339 105L88.2589 105.268L86.6518 103.929H85.5804L84.2411 103.125L83.1696 103.393L82.0982 102.589H80.4911L75.8036 101.116L77.8125 102.321L79.9554 104.464L81.0268 103.929L81.8304 104.464H86.3839L87.9911 106.607L89.0625 106.339L90.1339 105.268L91.7411 105L96.5625 109.821L96.9643 109.688ZM75.8036 153.616L76.3393 153.348L76.0714 151.741L76.6071 150.938L74.8661 148.929L74.1964 150.402L73.125 150.67V152.009L74.8661 153.75L75.8036 153.616Z" fill="url(#paint0_radial_801_86)"/>
<defs>
<radialGradient id="paint0_radial_801_86" cx="0" cy="0" r="1" gradientUnits="userSpaceOnUse" gradientTransform="translate(63.75 78.2143) rotate(90) scale(78.2143 63.75)">
<stop stop-color="#F08800"/>
<stop offset="1" stop-color="#FFDDB3"/>
</radialGradient>
</defs>
</svg>
